<?xml version="1.0" encoding="UTF-8" standalone="no"?>
<!-- Created with Inkscape (http://www.inkscape.org/) -->

<svg
   xmlns:dc="http://purl.org/dc/elements/1.1/"
   xmlns:cc="http://creativecommons.org/ns#"
   xmlns:rdf="http://www.w3.org/1999/02/22-rdf-syntax-ns#"
   xmlns:svg="http://www.w3.org/2000/svg"
   xmlns="http://www.w3.org/2000/svg"
   xmlns:xlink="http://www.w3.org/1999/xlink"
   xmlns:sodipodi="http://sodipodi.sourceforge.net/DTD/sodipodi-0.dtd"
   xmlns:inkscape="http://www.inkscape.org/namespaces/inkscape"
   width="941.53064"
   height="625.01031"
   id="svg2"
   version="1.1"
   inkscape:version="0.48.5 r10040"
   sodipodi:docname="droonga-rroonga.svg">
  <defs
     id="defs4">
    <marker
       inkscape:stockid="Arrow1Mend"
       orient="auto"
       refY="0"
       refX="0"
       id="Arrow1Mend"
       style="overflow:visible">
      <path
         id="path4285"
         d="M 0,0 5,-5 -12.5,0 5,5 0,0 z"
         style="fill-rule:evenodd;stroke:#000000;stroke-width:1pt"
         transform="matrix(-0.4,0,0,-0.4,-4,0)"
         inkscape:connector-curvature="0" />
    </marker>
    <marker
       style="overflow:visible"
       id="Arrow1MendButter"
       refX="0"
       refY="0"
       orient="auto"
       inkscape:stockid="Arrow1MendButter">
      <path
         inkscape:connector-curvature="0"
         transform="matrix(-0.4,0,0,-0.4,-4,0)"
         style="opacity:0.3;fill:#c4a000;fill-rule:evenodd;stroke:#c4a000;stroke-width:1pt"
         d="M 0,0 5,-5 -12.5,0 5,5 0,0 z"
         id="path5546" />
    </marker>
    <marker
       inkscape:stockid="Arrow1MendChameleon"
       orient="auto"
       refY="0"
       refX="0"
       id="Arrow1MendChameleon"
       style="overflow:visible">
      <path
         id="path5550"
         d="M 0,0 5,-5 -12.5,0 5,5 0,0 z"
         style="opacity:0.3;fill:#4e9a06;fill-rule:evenodd;stroke:#4e9a06;stroke-width:1pt"
         transform="matrix(-0.4,0,0,-0.4,-4,0)"
         inkscape:connector-curvature="0" />
    </marker>
    <marker
       style="overflow:visible"
       id="Arrow1MendOrange"
       refX="0"
       refY="0"
       orient="auto"
       inkscape:stockid="Arrow1MendOrange">
      <path
         inkscape:connector-curvature="0"
         transform="matrix(-0.4,0,0,-0.4,-4,0)"
         style="opacity:0.3;fill:#ce5c00;fill-rule:evenodd;stroke:#ce5c00;stroke-width:1pt"
         d="M 0,0 5,-5 -12.5,0 5,5 0,0 z"
         id="path5610" />
    </marker>
    <linearGradient
       y2="403.2283"
       x2="223.6167"
       y1="340.418"
       x1="223.6167"
       gradientTransform="translate(279.85374,93.654148)"
       gradientUnits="userSpaceOnUse"
       id="linearGradient4655"
       xlink:href="#SVGID_4_"
       inkscape:collect="always" />
    <linearGradient
       y2="403.2283"
       x2="223.6167"
       y1="340.418"
       x1="223.6167"
       gradientUnits="userSpaceOnUse"
       id="SVGID_4_"
       gradientTransform="translate(279.85374,93.654148)">
      <stop
         id="stop3959"
         style="stop-color:#AE0000"
         offset="0" />
      <stop
         id="stop3961"
         style="stop-color:#740000"
         offset="1" />
    </linearGradient>
    <linearGradient
       inkscape:collect="always"
       xlink:href="#SVGID_4_"
       id="linearGradient5404"
       gradientUnits="userSpaceOnUse"
       gradientTransform="translate(279.85374,93.654148)"
       x1="223.6167"
       y1="340.418"
       x2="223.6167"
       y2="403.2283" />
    <linearGradient
       inkscape:collect="always"
       xlink:href="#SVGID_4_"
       id="linearGradient5422"
       gradientUnits="userSpaceOnUse"
       gradientTransform="translate(279.85374,93.654148)"
       x1="223.6167"
       y1="340.418"
       x2="223.6167"
       y2="403.2283" />
    <linearGradient
       inkscape:collect="always"
       xlink:href="#SVGID_4_"
       id="linearGradient5440"
       gradientUnits="userSpaceOnUse"
       gradientTransform="translate(279.85374,93.654148)"
       x1="223.6167"
       y1="340.418"
       x2="223.6167"
       y2="403.2283" />
    <linearGradient
       inkscape:collect="always"
       xlink:href="#SVGID_4_"
       id="linearGradient5458"
       gradientUnits="userSpaceOnUse"
       gradientTransform="translate(279.85374,93.654148)"
       x1="223.6167"
       y1="340.418"
       x2="223.6167"
       y2="403.2283" />
    <linearGradient
       inkscape:collect="always"
       xlink:href="#SVGID_4_"
       id="linearGradient5476"
       gradientUnits="userSpaceOnUse"
       gradientTransform="translate(279.85374,93.654148)"
       x1="223.6167"
       y1="340.418"
       x2="223.6167"
       y2="403.2283" />
    <linearGradient
       inkscape:collect="always"
       xlink:href="#SVGID_4_"
       id="linearGradient5494"
       gradientUnits="userSpaceOnUse"
       gradientTransform="translate(279.85374,93.654148)"
       x1="223.6167"
       y1="340.418"
       x2="223.6167"
       y2="403.2283" />
  </defs>
  <sodipodi:namedview
     id="base"
     pagecolor="#ffffff"
     bordercolor="#666666"
     borderopacity="1.0"
     inkscape:pageopacity="0.0"
     inkscape:pageshadow="2"
     inkscape:zoom="0.49497475"
     inkscape:cx="498.6777"
     inkscape:cy="142.90686"
     inkscape:document-units="px"
     inkscape:current-layer="layer1"
     showgrid="false"
     inkscape:window-width="1373"
     inkscape:window-height="822"
     inkscape:window-x="2230"
     inkscape:window-y="126"
     inkscape:window-maximized="0"
     fit-margin-left="10"
     fit-margin-right="10"
     fit-margin-top="10"
     fit-margin-bottom="10" />
  <metadata
     id="metadata7">
    <rdf:RDF>
      <cc:Work
         rdf:about="">
        <dc:format>image/svg+xml</dc:format>
        <dc:type
           rdf:resource="http://purl.org/dc/dcmitype/StillImage" />
        <dc:title />
      </cc:Work>
    </rdf:RDF>
  </metadata>
  <g
     inkscape:label="レイヤー 1"
     inkscape:groupmode="layer"
     id="layer1"
     transform="translate(-194.22408,-103.89281)">
    <rect
       style="color:#000000;fill:#ffffff;fill-opacity:1;fill-rule:nonzero;stroke:#5c3566;stroke-width:2;stroke-linecap:butt;stroke-linejoin:miter;stroke-miterlimit:4;stroke-opacity:1;stroke-dasharray:none;stroke-dashoffset:0;marker:none;visibility:visible;display:inline;overflow:visible;enable-background:accumulate;opacity:0.3"
       id="rect4904"
       width="548.40527"
       height="460.48001"
       x="205.22408"
       y="257.42313" />
    <text
       xml:space="preserve"
       style="font-size:32px;font-style:normal;font-variant:normal;font-weight:normal;font-stretch:normal;line-height:125%;letter-spacing:0px;word-spacing:0px;fill:#000000;fill-opacity:1;stroke:none;font-family:Sans;-inkscape-font-specification:Sans"
       x="957.54895"
       y="341.35999"
       id="text4871"
       sodipodi:linespacing="125%"><tspan
         sodipodi:role="line"
         x="957.54895"
         y="341.35999"
         id="tspan3286">FTSE</tspan></text>
    <rect
       style="color:#000000;fill:#ffffff;fill-opacity:1;fill-rule:nonzero;stroke:#5c3566;stroke-width:2;stroke-linecap:butt;stroke-linejoin:miter;stroke-miterlimit:4;stroke-opacity:1;stroke-dasharray:none;stroke-dashoffset:0;marker:none;visibility:visible;display:inline;overflow:visible;enable-background:accumulate;opacity:0.3"
       id="rect4906"
       width="129.99989"
       height="104.28572"
       x="791.83472"
       y="136.21718" />
    <text
       sodipodi:linespacing="125%"
       id="text4908"
       y="157.36002"
       x="951.83472"
       style="font-size:32px;font-style:normal;font-variant:normal;font-weight:normal;font-stretch:normal;line-height:125%;letter-spacing:0px;word-spacing:0px;fill:#000000;fill-opacity:1;stroke:none;font-family:Sans;-inkscape-font-specification:Sans;opacity:0.3"
       xml:space="preserve"><tspan
         y="157.36002"
         x="951.83472"
         sodipodi:role="line"
         id="tspan3273">DTFSE</tspan></text>
    <rect
       y="316.21716"
       x="791.83472"
       height="104.28572"
       width="129.99989"
       id="rect4181"
       style="color:#000000;fill:#ffffff;fill-opacity:1;fill-rule:nonzero;stroke:#204a87;stroke-width:2;stroke-linecap:butt;stroke-linejoin:miter;stroke-miterlimit:4;stroke-opacity:1;stroke-dasharray:none;stroke-dashoffset:0;marker:none;visibility:visible;display:inline;overflow:visible;enable-background:accumulate" />
    <rect
       style="color:#000000;fill:#ffffff;fill-opacity:1;fill-rule:nonzero;stroke:#204a87;stroke-width:2;stroke-linecap:butt;stroke-linejoin:miter;stroke-miterlimit:4;stroke-opacity:1;stroke-dasharray:none;stroke-dashoffset:0;marker:none;visibility:visible;display:inline;overflow:visible;enable-background:accumulate"
       id="rect4197"
       width="129.99989"
       height="104.28572"
       x="239.1275"
       y="578.00769" />
    <rect
       y="578.00769"
       x="410.85342"
       height="104.28572"
       width="129.99989"
       id="rect4243"
       style="color:#000000;fill:#ffffff;fill-opacity:1;fill-rule:nonzero;stroke:#204a87;stroke-width:2;stroke-linecap:butt;stroke-linejoin:miter;stroke-miterlimit:4;stroke-opacity:1;stroke-dasharray:none;stroke-dashoffset:0;marker:none;visibility:visible;display:inline;overflow:visible;enable-background:accumulate" />
    <rect
       style="color:#000000;fill:#ffffff;fill-opacity:1;fill-rule:nonzero;stroke:#204a87;stroke-width:2;stroke-linecap:butt;stroke-linejoin:miter;stroke-miterlimit:4;stroke-opacity:1;stroke-dasharray:none;stroke-dashoffset:0;marker:none;visibility:visible;display:inline;overflow:visible;enable-background:accumulate"
       id="rect4245"
       width="129.99989"
       height="104.28572"
       x="580.55902"
       y="578.00769" />
    <rect
       y="422.00769"
       x="239.1275"
       height="104.28572"
       width="129.99989"
       id="rect4260"
       style="color:#000000;fill:#ffffff;fill-opacity:1;fill-rule:nonzero;stroke:#204a87;stroke-width:2;stroke-linecap:butt;stroke-linejoin:miter;stroke-miterlimit:4;stroke-opacity:1;stroke-dasharray:none;stroke-dashoffset:0;marker:none;visibility:visible;display:inline;overflow:visible;enable-background:accumulate" />
    <rect
       style="color:#000000;fill:#ffffff;fill-opacity:1;fill-rule:nonzero;stroke:#204a87;stroke-width:2;stroke-linecap:butt;stroke-linejoin:miter;stroke-miterlimit:4;stroke-opacity:1;stroke-dasharray:none;stroke-dashoffset:0;marker:none;visibility:visible;display:inline;overflow:visible;enable-background:accumulate"
       id="rect4262"
       width="129.99989"
       height="104.28572"
       x="410.85342"
       y="422.00769" />
    <rect
       y="422.00769"
       x="580.55902"
       height="104.28572"
       width="129.99989"
       id="rect4264"
       style="color:#000000;fill:#ffffff;fill-opacity:1;fill-rule:nonzero;stroke:#204a87;stroke-width:2;stroke-linecap:butt;stroke-linejoin:miter;stroke-miterlimit:4;stroke-opacity:1;stroke-dasharray:none;stroke-dashoffset:0;marker:none;visibility:visible;display:inline;overflow:visible;enable-background:accumulate" />
    <text
       xml:space="preserve"
       style="font-size:32px;font-style:normal;font-variant:normal;font-weight:normal;font-stretch:normal;line-height:125%;letter-spacing:0px;word-spacing:0px;fill:#000000;fill-opacity:1;stroke:none;font-family:Sans;-inkscape-font-specification:Sans;opacity:0.3"
       x="325.70636"
       y="155.54259"
       id="text4266"
       sodipodi:linespacing="125%"><tspan
         sodipodi:role="line"
         id="tspan4268"
         x="325.70636"
         y="155.54259">1: Full-text search</tspan></text>
    <path
       style="fill:none;stroke:#c4a000;stroke-width:2;stroke-linecap:butt;stroke-linejoin:miter;stroke-miterlimit:4;stroke-opacity:1;stroke-dasharray:none;marker-end:url(#Arrow1MendButter);opacity:0.3"
       d="m 358.47794,186.20469 0,56.4547"
       id="path4270"
       inkscape:connector-curvature="0"
       sodipodi:nodetypes="cc" />
    <path
       inkscape:connector-curvature="0"
       id="path4718"
       d="m 258.06674,376.61878 0,87.88327"
       style="fill:none;stroke:#4e9a06;stroke-width:2;stroke-linecap:butt;stroke-linejoin:miter;stroke-miterlimit:4;stroke-opacity:1;stroke-dasharray:none;marker-end:url(#Arrow1MendChameleon);opacity:0.3" />
    <text
       xml:space="preserve"
       style="font-size:32px;font-style:normal;font-variant:normal;font-weight:normal;font-stretch:normal;line-height:125%;letter-spacing:0px;word-spacing:0px;fill:#000000;fill-opacity:1;stroke:none;font-family:Sans;-inkscape-font-specification:Sans;opacity:0.3"
       x="240.65048"
       y="306.72028"
       id="text4726"
       sodipodi:linespacing="125%"><tspan
         sodipodi:role="line"
         id="tspan4728"
         x="240.65048"
         y="306.72028">2: Distribute</tspan><tspan
         sodipodi:role="line"
         x="240.65048"
         y="346.72028"
         id="tspan4730">sub requests</tspan></text>
    <text
       sodipodi:linespacing="125%"
       id="text4732"
       y="304.65939"
       x="557.41553"
       style="font-size:32px;font-style:normal;font-variant:normal;font-weight:normal;font-stretch:normal;line-height:125%;letter-spacing:0px;word-spacing:0px;fill:#000000;fill-opacity:1;stroke:none;font-family:Sans;-inkscape-font-specification:Sans;opacity:0.3"
       xml:space="preserve"><tspan
         y="304.65939"
         x="557.41553"
         sodipodi:role="line"
         id="tspan4740">3: Merge</tspan><tspan
         y="344.65939"
         x="557.41553"
         sodipodi:role="line"
         id="tspan4744">responses</tspan></text>
    <path
       sodipodi:nodetypes="cc"
       inkscape:connector-curvature="0"
       id="path4774"
       d="m 352.06673,376.61878 260.58962,91.27417"
       style="color:#000000;fill:none;stroke:#4e9a06;stroke-width:2;stroke-linecap:butt;stroke-linejoin:miter;stroke-miterlimit:4;stroke-opacity:1;stroke-dasharray:none;stroke-dashoffset:0;marker:none;marker-end:url(#Arrow1MendChameleon);visibility:visible;display:inline;overflow:visible;enable-background:accumulate;opacity:0.3" />
    <path
       style="fill:none;stroke:#ce5c00;stroke-width:2;stroke-linecap:butt;stroke-linejoin:miter;stroke-miterlimit:4;stroke-opacity:1;stroke-dasharray:none;marker-end:url(#Arrow1MendOrange);opacity:0.3"
       d="M 260.42857,470.50504 531.85714,369.79076"
       id="path4791"
       inkscape:connector-curvature="0" />
    <path
       style="fill:none;stroke:#ce5c00;stroke-width:2;stroke-linecap:butt;stroke-linejoin:miter;stroke-miterlimit:4;stroke-opacity:1;stroke-dasharray:none;marker-end:url(#Arrow1MendOrange);opacity:0.3"
       d="m 624,468.36219 0,-96.42858"
       id="path5345"
       inkscape:connector-curvature="0"
       sodipodi:nodetypes="cc" />
    <path
       sodipodi:nodetypes="cc"
       inkscape:connector-curvature="0"
       id="path5542"
       d="m 618.47794,244.15939 0,-56.4547"
       style="fill:none;stroke:#c4a000;stroke-width:2;stroke-linecap:butt;stroke-linejoin:miter;stroke-miterlimit:4;stroke-opacity:1;stroke-dasharray:none;marker-end:url(#Arrow1MendButter);opacity:0.3" />
    <rect
       style="color:#000000;fill:none;stroke:#c4a000;stroke-width:2;stroke-linecap:butt;stroke-linejoin:miter;stroke-miterlimit:4;stroke-opacity:1;stroke-dasharray:none;stroke-dashoffset:0;marker:none;visibility:visible;display:inline;overflow:visible;enable-background:accumulate;opacity:0.3"
       id="rect3028"
       width="349.5845"
       height="58.588852"
       x="303.32056"
       y="114.89281"
       rx="5"
       ry="5" />
    <rect
       ry="5"
       rx="5"
       y="271.52737"
       x="226.50835"
       height="93.944176"
       width="237.3858"
       id="rect3030"
       style="color:#000000;fill:none;stroke:#4e9a06;stroke-width:2;stroke-linecap:butt;stroke-linejoin:miter;stroke-miterlimit:4;stroke-opacity:1;stroke-dasharray:none;stroke-dashoffset:0;marker:none;visibility:visible;display:inline;overflow:visible;enable-background:accumulate;opacity:0.3" />
    <rect
       ry="5"
       rx="5"
       y="271.52737"
       x="539.68097"
       height="85.252655"
       width="181.6568"
       id="rect3034"
       style="color:#000000;fill:none;stroke:#ce5c00;stroke-width:2;stroke-linecap:butt;stroke-linejoin:miter;stroke-miterlimit:4;stroke-opacity:1;stroke-dasharray:none;stroke-dashoffset:0;marker:none;visibility:visible;display:inline;overflow:visible;enable-background:accumulate;opacity:0.3" />
    <path
       sodipodi:nodetypes="cc"
       inkscape:connector-curvature="0"
       id="path3228"
       d="m 811.39667,606.24767 94.66429,0"
       style="fill:none;stroke:#c4a000;stroke-width:2;stroke-linecap:butt;stroke-linejoin:miter;stroke-miterlimit:4;stroke-opacity:1;stroke-dasharray:none;marker-end:url(#Arrow1MendButter);opacity:0.3" />
    <path
       style="fill:none;stroke:#4e9a06;stroke-width:2;stroke-linecap:butt;stroke-linejoin:miter;stroke-miterlimit:4;stroke-opacity:1;stroke-dasharray:none;marker-end:url(#Arrow1MendChameleon);opacity:0.3"
       d="m 811.39667,639.06988 94.66429,0"
       id="path3230"
       inkscape:connector-curvature="0"
       sodipodi:nodetypes="cc" />
    <path
       sodipodi:nodetypes="cc"
       inkscape:connector-curvature="0"
       id="path3234"
       d="m 811.39667,671.8921 94.66429,0"
       style="fill:none;stroke:#ce5c00;stroke-width:2;stroke-linecap:butt;stroke-linejoin:miter;stroke-miterlimit:4;stroke-opacity:1;stroke-dasharray:none;marker-end:url(#Arrow1MendOrange);opacity:0.3" />
    <text
       sodipodi:linespacing="125%"
       id="text3236"
       y="627.35999"
       x="957.54895"
       style="font-size:32px;font-style:normal;font-variant:normal;font-weight:normal;font-stretch:normal;line-height:125%;letter-spacing:0px;word-spacing:0px;fill:#000000;fill-opacity:1;stroke:none;font-family:Sans;-inkscape-font-specification:Sans;opacity:0.3"
       xml:space="preserve"><tspan
         id="tspan3244"
         y="627.35999"
         x="957.54895"
         sodipodi:role="line">Messaging</tspan><tspan
         y="667.35999"
         x="957.54895"
         sodipodi:role="line"
         id="tspan3255">system</tspan></text>
    <path
       sodipodi:type="arc"
       style="color:#000000;fill:none;stroke:#ce5c00;stroke-width:2;stroke-linecap:butt;stroke-linejoin:miter;stroke-miterlimit:4;stroke-opacity:1;stroke-dasharray:none;stroke-dashoffset:0;marker:none;visibility:visible;display:inline;overflow:visible;enable-background:accumulate;opacity:0.3"
       id="path3388"
       sodipodi:cx="135"
       sodipodi:cy="398.58176"
       sodipodi:rx="15"
       sodipodi:ry="15"
       d="m 150,398.58176 c 0,8.28427 -6.71573,15 -15,15 -8.28427,0 -15,-6.71573 -15,-15 0,-8.28427 6.71573,-15 15,-15 8.28427,0 15,6.71573 15,15 z"
       transform="translate(208.22408,103.89281)" />
    <path
       sodipodi:type="arc"
       style="color:#000000;fill:none;stroke:#ce5c00;stroke-width:2;stroke-linecap:butt;stroke-linejoin:miter;stroke-miterlimit:4;stroke-opacity:1;stroke-dasharray:none;stroke-dashoffset:0;marker:none;visibility:visible;display:inline;overflow:visible;enable-background:accumulate;opacity:0.3"
       id="path3390"
       sodipodi:cx="665.71429"
       sodipodi:cy="415.01031"
       sodipodi:rx="22.857143"
       sodipodi:ry="22.857143"
       d="m 688.57144,415.01031 c 0,12.62366 -10.23349,22.85715 -22.85715,22.85715 -12.62365,0 -22.85714,-10.23349 -22.85714,-22.85715 0,-12.62365 10.23349,-22.85714 22.85714,-22.85714 12.62366,0 22.85715,10.23349 22.85715,22.85714 z"
       transform="translate(194.22408,103.89281)" />
    <text
       xml:space="preserve"
       style="font-size:32px;font-style:normal;font-variant:normal;font-weight:normal;font-stretch:normal;line-height:125%;letter-spacing:0px;word-spacing:0px;fill:#000000;fill-opacity:1;stroke:none;font-family:Sans;-inkscape-font-specification:Sans;opacity:0.3"
       x="957.54895"
       y="515.35999"
       id="text3392"
       sodipodi:linespacing="125%"><tspan
         id="tspan3396"
         sodipodi:role="line"
         x="957.54895"
         y="515.35999">Worker</tspan><tspan
         sodipodi:role="line"
         x="957.54895"
         y="555.35999"
         id="tspan3447">process</tspan></text>
    <path
       transform="translate(128.22408,103.89281)"
       d="m 150,398.58176 c 0,8.28427 -6.71573,15 -15,15 -8.28427,0 -15,-6.71573 -15,-15 0,-8.28427 6.71573,-15 15,-15 8.28427,0 15,6.71573 15,15 z"
       sodipodi:ry="15"
       sodipodi:rx="15"
       sodipodi:cy="398.58176"
       sodipodi:cx="135"
       id="path3400"
       style="color:#000000;fill:none;stroke:#ce5c00;stroke-width:2;stroke-linecap:butt;stroke-linejoin:miter;stroke-miterlimit:4;stroke-opacity:1;stroke-dasharray:none;stroke-dashoffset:0;marker:none;visibility:visible;display:inline;overflow:visible;enable-background:accumulate;opacity:0.3"
       sodipodi:type="arc" />
    <path
       sodipodi:type="arc"
       style="color:#000000;fill:none;stroke:#ce5c00;stroke-width:2;stroke-linecap:butt;stroke-linejoin:miter;stroke-miterlimit:4;stroke-opacity:1;stroke-dasharray:none;stroke-dashoffset:0;marker:none;visibility:visible;display:inline;overflow:visible;enable-background:accumulate;opacity:0.3"
       id="path3402"
       sodipodi:cx="135"
       sodipodi:cy="398.58176"
       sodipodi:rx="15"
       sodipodi:ry="15"
       d="m 150,398.58176 c 0,8.28427 -6.71573,15 -15,15 -8.28427,0 -15,-6.71573 -15,-15 0,-8.28427 6.71573,-15 15,-15 8.28427,0 15,6.71573 15,15 z"
       transform="translate(168.22408,103.89281)" />
    <path
       transform="translate(208.22408,257.89281)"
       d="m 150,398.58176 c 0,8.28427 -6.71573,15 -15,15 -8.28427,0 -15,-6.71573 -15,-15 0,-8.28427 6.71573,-15 15,-15 8.28427,0 15,6.71573 15,15 z"
       sodipodi:ry="15"
       sodipodi:rx="15"
       sodipodi:cy="398.58176"
       sodipodi:cx="135"
       id="path3417"
       style="color:#000000;fill:none;stroke:#ce5c00;stroke-width:2;stroke-linecap:butt;stroke-linejoin:miter;stroke-miterlimit:4;stroke-opacity:1;stroke-dasharray:none;stroke-dashoffset:0;marker:none;visibility:visible;display:inline;overflow:visible;enable-background:accumulate;opacity:0.3"
       sodipodi:type="arc" />
    <path
       sodipodi:type="arc"
       style="color:#000000;fill:none;stroke:#ce5c00;stroke-width:2;stroke-linecap:butt;stroke-linejoin:miter;stroke-miterlimit:4;stroke-opacity:1;stroke-dasharray:none;stroke-dashoffset:0;marker:none;visibility:visible;display:inline;overflow:visible;enable-background:accumulate;opacity:0.3"
       id="path3419"
       sodipodi:cx="135"
       sodipodi:cy="398.58176"
       sodipodi:rx="15"
       sodipodi:ry="15"
       d="m 150,398.58176 c 0,8.28427 -6.71573,15 -15,15 -8.28427,0 -15,-6.71573 -15,-15 0,-8.28427 6.71573,-15 15,-15 8.28427,0 15,6.71573 15,15 z"
       transform="translate(128.22408,257.89281)" />
    <path
       transform="translate(168.22408,257.89281)"
       d="m 150,398.58176 c 0,8.28427 -6.71573,15 -15,15 -8.28427,0 -15,-6.71573 -15,-15 0,-8.28427 6.71573,-15 15,-15 8.28427,0 15,6.71573 15,15 z"
       sodipodi:ry="15"
       sodipodi:rx="15"
       sodipodi:cy="398.58176"
       sodipodi:cx="135"
       id="path3421"
       style="color:#000000;fill:none;stroke:#ce5c00;stroke-width:2;stroke-linecap:butt;stroke-linejoin:miter;stroke-miterlimit:4;stroke-opacity:1;stroke-dasharray:none;stroke-dashoffset:0;marker:none;visibility:visible;display:inline;overflow:visible;enable-background:accumulate;opacity:0.3"
       sodipodi:type="arc" />
    <path
       sodipodi:type="arc"
       style="color:#000000;fill:none;stroke:#ce5c00;stroke-width:2;stroke-linecap:butt;stroke-linejoin:miter;stroke-miterlimit:4;stroke-opacity:1;stroke-dasharray:none;stroke-dashoffset:0;marker:none;visibility:visible;display:inline;overflow:visible;enable-background:accumulate;opacity:0.3"
       id="path3423"
       sodipodi:cx="135"
       sodipodi:cy="398.58176"
       sodipodi:rx="15"
       sodipodi:ry="15"
       d="m 150,398.58176 c 0,8.28427 -6.71573,15 -15,15 -8.28427,0 -15,-6.71573 -15,-15 0,-8.28427 6.71573,-15 15,-15 8.28427,0 15,6.71573 15,15 z"
       transform="translate(380.22408,257.89281)" />
    <path
       transform="translate(300.22408,257.89281)"
       d="m 150,398.58176 c 0,8.28427 -6.71573,15 -15,15 -8.28427,0 -15,-6.71573 -15,-15 0,-8.28427 6.71573,-15 15,-15 8.28427,0 15,6.71573 15,15 z"
       sodipodi:ry="15"
       sodipodi:rx="15"
       sodipodi:cy="398.58176"
       sodipodi:cx="135"
       id="path3425"
       style="color:#000000;fill:none;stroke:#ce5c00;stroke-width:2;stroke-linecap:butt;stroke-linejoin:miter;stroke-miterlimit:4;stroke-opacity:1;stroke-dasharray:none;stroke-dashoffset:0;marker:none;visibility:visible;display:inline;overflow:visible;enable-background:accumulate;opacity:0.3"
       sodipodi:type="arc" />
    <path
       sodipodi:type="arc"
       style="color:#000000;fill:none;stroke:#ce5c00;stroke-width:2;stroke-linecap:butt;stroke-linejoin:miter;stroke-miterlimit:4;stroke-opacity:1;stroke-dasharray:none;stroke-dashoffset:0;marker:none;visibility:visible;display:inline;overflow:visible;enable-background:accumulate;opacity:0.3"
       id="path3427"
       sodipodi:cx="135"
       sodipodi:cy="398.58176"
       sodipodi:rx="15"
       sodipodi:ry="15"
       d="m 150,398.58176 c 0,8.28427 -6.71573,15 -15,15 -8.28427,0 -15,-6.71573 -15,-15 0,-8.28427 6.71573,-15 15,-15 8.28427,0 15,6.71573 15,15 z"
       transform="translate(340.22408,257.89281)" />
    <path
       transform="translate(550.22408,257.89281)"
       d="m 150,398.58176 c 0,8.28427 -6.71573,15 -15,15 -8.28427,0 -15,-6.71573 -15,-15 0,-8.28427 6.71573,-15 15,-15 8.28427,0 15,6.71573 15,15 z"
       sodipodi:ry="15"
       sodipodi:rx="15"
       sodipodi:cy="398.58176"
       sodipodi:cx="135"
       id="path3429"
       style="color:#000000;fill:none;stroke:#ce5c00;stroke-width:2;stroke-linecap:butt;stroke-linejoin:miter;stroke-miterlimit:4;stroke-opacity:1;stroke-dasharray:none;stroke-dashoffset:0;marker:none;visibility:visible;display:inline;overflow:visible;enable-background:accumulate;opacity:0.3"
       sodipodi:type="arc" />
    <path
       sodipodi:type="arc"
       style="color:#000000;fill:none;stroke:#ce5c00;stroke-width:2;stroke-linecap:butt;stroke-linejoin:miter;stroke-miterlimit:4;stroke-opacity:1;stroke-dasharray:none;stroke-dashoffset:0;marker:none;visibility:visible;display:inline;overflow:visible;enable-background:accumulate;opacity:0.3"
       id="path3431"
       sodipodi:cx="135"
       sodipodi:cy="398.58176"
       sodipodi:rx="15"
       sodipodi:ry="15"
       d="m 150,398.58176 c 0,8.28427 -6.71573,15 -15,15 -8.28427,0 -15,-6.71573 -15,-15 0,-8.28427 6.71573,-15 15,-15 8.28427,0 15,6.71573 15,15 z"
       transform="translate(470.22408,257.89281)" />
    <path
       transform="translate(510.22408,257.89281)"
       d="m 150,398.58176 c 0,8.28427 -6.71573,15 -15,15 -8.28427,0 -15,-6.71573 -15,-15 0,-8.28427 6.71573,-15 15,-15 8.28427,0 15,6.71573 15,15 z"
       sodipodi:ry="15"
       sodipodi:rx="15"
       sodipodi:cy="398.58176"
       sodipodi:cx="135"
       id="path3433"
       style="color:#000000;fill:none;stroke:#ce5c00;stroke-width:2;stroke-linecap:butt;stroke-linejoin:miter;stroke-miterlimit:4;stroke-opacity:1;stroke-dasharray:none;stroke-dashoffset:0;marker:none;visibility:visible;display:inline;overflow:visible;enable-background:accumulate;opacity:0.3"
       sodipodi:type="arc" />
    <path
       transform="translate(380.22408,103.89281)"
       d="m 150,398.58176 c 0,8.28427 -6.71573,15 -15,15 -8.28427,0 -15,-6.71573 -15,-15 0,-8.28427 6.71573,-15 15,-15 8.28427,0 15,6.71573 15,15 z"
       sodipodi:ry="15"
       sodipodi:rx="15"
       sodipodi:cy="398.58176"
       sodipodi:cx="135"
       id="path3435"
       style="color:#000000;fill:none;stroke:#ce5c00;stroke-width:2;stroke-linecap:butt;stroke-linejoin:miter;stroke-miterlimit:4;stroke-opacity:1;stroke-dasharray:none;stroke-dashoffset:0;marker:none;visibility:visible;display:inline;overflow:visible;enable-background:accumulate;opacity:0.3"
       sodipodi:type="arc" />
    <path
       sodipodi:type="arc"
       style="color:#000000;fill:none;stroke:#ce5c00;stroke-width:2;stroke-linecap:butt;stroke-linejoin:miter;stroke-miterlimit:4;stroke-opacity:1;stroke-dasharray:none;stroke-dashoffset:0;marker:none;visibility:visible;display:inline;overflow:visible;enable-background:accumulate;opacity:0.3"
       id="path3437"
       sodipodi:cx="135"
       sodipodi:cy="398.58176"
       sodipodi:rx="15"
       sodipodi:ry="15"
       d="m 150,398.58176 c 0,8.28427 -6.71573,15 -15,15 -8.28427,0 -15,-6.71573 -15,-15 0,-8.28427 6.71573,-15 15,-15 8.28427,0 15,6.71573 15,15 z"
       transform="translate(300.22408,103.89281)" />
    <path
       transform="translate(340.22408,103.89281)"
       d="m 150,398.58176 c 0,8.28427 -6.71573,15 -15,15 -8.28427,0 -15,-6.71573 -15,-15 0,-8.28427 6.71573,-15 15,-15 8.28427,0 15,6.71573 15,15 z"
       sodipodi:ry="15"
       sodipodi:rx="15"
       sodipodi:cy="398.58176"
       sodipodi:cx="135"
       id="path3439"
       style="color:#000000;fill:none;stroke:#ce5c00;stroke-width:2;stroke-linecap:butt;stroke-linejoin:miter;stroke-miterlimit:4;stroke-opacity:1;stroke-dasharray:none;stroke-dashoffset:0;marker:none;visibility:visible;display:inline;overflow:visible;enable-background:accumulate;opacity:0.3"
       sodipodi:type="arc" />
    <path
       sodipodi:type="arc"
       style="color:#000000;fill:none;stroke:#ce5c00;stroke-width:2;stroke-linecap:butt;stroke-linejoin:miter;stroke-miterlimit:4;stroke-opacity:1;stroke-dasharray:none;stroke-dashoffset:0;marker:none;visibility:visible;display:inline;overflow:visible;enable-background:accumulate;opacity:0.3"
       id="path3441"
       sodipodi:cx="135"
       sodipodi:cy="398.58176"
       sodipodi:rx="15"
       sodipodi:ry="15"
       d="m 150,398.58176 c 0,8.28427 -6.71573,15 -15,15 -8.28427,0 -15,-6.71573 -15,-15 0,-8.28427 6.71573,-15 15,-15 8.28427,0 15,6.71573 15,15 z"
       transform="translate(550.22408,103.89281)" />
    <path
       transform="translate(470.22408,103.89281)"
       d="m 150,398.58176 c 0,8.28427 -6.71573,15 -15,15 -8.28427,0 -15,-6.71573 -15,-15 0,-8.28427 6.71573,-15 15,-15 8.28427,0 15,6.71573 15,15 z"
       sodipodi:ry="15"
       sodipodi:rx="15"
       sodipodi:cy="398.58176"
       sodipodi:cx="135"
       id="path3443"
       style="color:#000000;fill:none;stroke:#ce5c00;stroke-width:2;stroke-linecap:butt;stroke-linejoin:miter;stroke-miterlimit:4;stroke-opacity:1;stroke-dasharray:none;stroke-dashoffset:0;marker:none;visibility:visible;display:inline;overflow:visible;enable-background:accumulate;opacity:0.3"
       sodipodi:type="arc" />
    <path
       sodipodi:type="arc"
       style="color:#000000;fill:none;stroke:#ce5c00;stroke-width:2;stroke-linecap:butt;stroke-linejoin:miter;stroke-miterlimit:4;stroke-opacity:1;stroke-dasharray:none;stroke-dashoffset:0;marker:none;visibility:visible;display:inline;overflow:visible;enable-background:accumulate;opacity:0.3"
       id="path3445"
       sodipodi:cx="135"
       sodipodi:cy="398.58176"
       sodipodi:rx="15"
       sodipodi:ry="15"
       d="m 150,398.58176 c 0,8.28427 -6.71573,15 -15,15 -8.28427,0 -15,-6.71573 -15,-15 0,-8.28427 6.71573,-15 15,-15 8.28427,0 15,6.71573 15,15 z"
       transform="translate(510.22408,103.89281)" />
    <g
       transform="matrix(0.56558572,0,0,0.56558572,556.22159,105.79329)"
       id="layer1-4"
       inkscape:label="レイヤー 1">
      <g
         id="g4647">
        <path
           inkscape:connector-curvature="0"
           d="m 470.75274,454.90715 c -1.336,-0.292 -2.281,-0.45 -3.442,-0.45 -2.847,0 -5.33,0.832 -7.391,2.467 -0.091,0.062 -0.192,0.142 -0.303,0.247 -0.231,0.197 -0.452,0.405 -0.668,0.621 -1.478,1.313 -2.76,1.95 -2.76,-1.235 v -0.666 c 0,-0.404 -0.327,-0.733 -0.732,-0.733 h -2.101 c -0.198,0 -0.388,0.081 -0.525,0.223 -0.139,0.143 -0.212,0.335 -0.206,0.533 0.105,3.333 0.215,6.778 0.215,9.622 v 18.749 c 0,0.403 0.328,0.731 0.732,0.731 h 2.209 c 0.404,0 0.732,-0.328 0.732,-0.731 v -9.913 c 0,-1.371 0.107,-3.805 0.309,-4.813 1.569,-7.798 4.982,-11.59 10.435,-11.59 0.979,0 1.881,0.164 2.874,0.364 0.048,0.01 0.096,0.013 0.144,0.013 0.148,0 0.294,-0.043 0.417,-0.129 0.163,-0.113 0.273,-0.288 0.306,-0.485 l 0.323,-1.993 c 0.062,-0.386 -0.187,-0.752 -0.568,-0.832 z"
           id="path3948" />
        <path
           inkscape:connector-curvature="0"
           d="m 444.70074,454.90715 c -1.337,-0.292 -2.281,-0.45 -3.442,-0.45 -2.847,0 -5.33,0.832 -7.391,2.467 -0.092,0.062 -0.192,0.142 -0.303,0.247 -0.231,0.197 -0.452,0.405 -0.668,0.621 -1.478,1.313 -2.759,1.95 -2.759,-1.235 v -0.666 c 0,-0.404 -0.327,-0.733 -0.732,-0.733 h -2.101 c -0.198,0 -0.388,0.081 -0.526,0.223 -0.138,0.143 -0.212,0.335 -0.206,0.533 0.105,3.333 0.215,6.778 0.215,9.622 v 18.749 c 0,0.403 0.327,0.731 0.732,0.731 h 2.209 c 0.404,0 0.732,-0.328 0.732,-0.731 v -9.913 c 0,-1.371 0.107,-3.805 0.309,-4.813 1.569,-7.798 4.983,-11.59 10.435,-11.59 0.979,0 1.881,0.164 2.874,0.364 0.048,0.01 0.096,0.013 0.144,0.013 0.148,0 0.294,-0.043 0.417,-0.129 0.163,-0.113 0.273,-0.288 0.306,-0.485 l 0.323,-1.993 c 0.061,-0.386 -0.188,-0.752 -0.568,-0.832 z"
           id="path3950" />
        <path
           inkscape:connector-curvature="0"
           d="m 559.79974,456.49815 c -2.512,-1.775 -5.292,-2.041 -6.726,-2.041 -2.91,0 -5.648,0.913 -7.822,2.496 -0.005,0.003 -0.01,0.003 -0.014,0.007 -1.004,0.649 -2.627,0.911 -2.618,-0.624 l 0,-0.021 c 0.002,-0.107 -0.003,-0.198 -0.013,-0.278 l -0.008,-0.181 c -0.019,-0.391 -0.34,-0.699 -0.731,-0.699 h -2.102 c -0.203,0 -0.396,0.086 -0.535,0.232 -0.138,0.148 -0.209,0.348 -0.195,0.549 0.152,2.282 0.214,4.17 0.214,6.526 v 21.819 c 0,0.403 0.328,0.731 0.731,0.731 h 2.209 c 0.404,0 0.732,-0.328 0.732,-0.731 v -17.51 c 0,-0.815 0.253,-1.763 0.49,-2.378 0.004,-0.01 0.006,-0.016 0.01,-0.026 1.043,-3.042 4.224,-6.118 8.417,-6.474 3.236,0 8.327,2.358 9.024,8.226 0.016,0.15 0.03,0.299 0.042,0.443 0.004,0.05 0.008,0.099 0.011,0.148 0.005,0.07 0.009,0.14 0.014,0.209 0.009,0.19 0.015,0.386 0.015,0.584 0,0.332 0.006,0.636 0.017,0.909 v 15.868 c 0,0.403 0.328,0.731 0.733,0.731 h 2.208 c 0.404,0 0.732,-0.328 0.732,-0.731 v -16.271 c 0,-5.372 -1.627,-9.246 -4.835,-11.513 z"
           id="path3952" />
        <path
           inkscape:connector-curvature="0"
           d="m 636.02374,481.83915 c -0.133,-0.111 -0.301,-0.173 -0.473,-0.173 -0.04,0 -0.08,0.005 -0.12,0.01 -0.587,0.097 -0.965,0.097 -1.442,0.097 -1.147,0 -2.177,-0.334 -2.177,-4.386 v -9.913 c 0,-2.344 -0.179,-5.367 -1.583,-7.971 -1.822,-3.384 -5.181,-5.099 -9.978,-5.099 -2.475,0 -6.217,0.516 -9.99,2.974 -0.315,0.205 -0.422,0.614 -0.25,0.949 l 0.861,1.67 c 0.098,0.188 0.272,0.325 0.478,0.377 0.058,0.013 0.116,0.019 0.173,0.019 0.151,0 0.299,-0.046 0.424,-0.133 2.314,-1.64 5.186,-2.506 8.305,-2.506 3.995,0 6.004,1.854 7,3.939 0,0 0,0 0,0.002 1.004,2.219 -0.561,4.402 -2.285,4.584 -0.085,0.005 -0.17,0.006 -0.254,0.012 -0.014,0 -0.028,0 -0.042,0 -0.055,-0.002 -0.101,0.002 -0.143,0.009 -10.978,0.628 -16.538,4.312 -16.538,10.98 0,2.028 0.803,4.057 2.202,5.569 1.233,1.332 3.56,2.92 7.635,2.92 3.471,0 6.271,-1.111 8.325,-2.472 0.061,-0.032 0.13,-0.076 0.211,-0.141 0.023,-0.017 0.042,-0.029 0.064,-0.047 0.128,-0.09 0.256,-0.18 0.378,-0.269 1.275,-0.825 1.969,-0.351 2.623,0.502 0.002,0.005 0.006,0.006 0.008,0.008 0.84,1.143 2.161,1.72 3.962,1.72 0.846,0 1.591,-0.094 2.344,-0.296 0.32,-0.086 0.543,-0.374 0.543,-0.706 v -1.672 c -0.002,-0.215 -0.097,-0.417 -0.261,-0.557 z m -18.252,0.529 c -3.042,0 -6.111,-1.725 -6.111,-5.573 0,-4.862 5.936,-6.58 12.167,-7.043 2.32,-0.043 4.097,2.161 4.311,4.575 v 0.988 c -0.062,0.647 -0.246,1.289 -0.568,1.889 -0.162,0.263 -0.356,0.556 -0.589,0.864 -0.04,0.048 -0.075,0.092 -0.103,0.134 -1.442,1.848 -4.223,4.166 -9.107,4.166 z"
           id="path3954" />
        <path
           inkscape:connector-curvature="0"
           d="m 599.89174,455.15715 h -2.047 c -0.393,0 -0.716,0.31 -0.731,0.704 -0.066,1.617 -0.892,1.835 -2.703,0.766 -0.009,-0.008 -0.018,-0.013 -0.027,-0.021 -0.178,-0.118 -0.362,-0.229 -0.546,-0.339 -0.011,-0.005 -0.02,-0.011 -0.031,-0.019 -0.087,-0.059 -0.168,-0.102 -0.244,-0.139 -1.982,-1.097 -4.307,-1.652 -6.924,-1.652 -3.739,0 -7.429,1.549 -10.122,4.249 -2.082,2.089 -4.564,5.828 -4.564,11.785 0,3.816 1.346,7.414 3.792,10.122 2.595,2.873 6.234,4.458 10.248,4.458 3.111,0 5.514,-0.822 7.335,-1.898 0.004,0 0.007,-0.003 0.012,-0.004 1.954,-0.874 3.603,-2.182 3.135,2.233 -0.875,5.677 -4.519,8.764 -10.482,8.764 -4.175,0 -7.31,-1.406 -9.204,-2.583 -0.118,-0.073 -0.251,-0.111 -0.387,-0.111 -0.06,0 -0.122,0.008 -0.182,0.022 -0.193,0.051 -0.358,0.177 -0.456,0.351 l -0.97,1.725 c -0.189,0.335 -0.085,0.763 0.237,0.972 2.853,1.864 6.91,2.976 10.854,2.976 2.689,0 9.293,-0.624 12.493,-6.413 1.385,-2.482 2.031,-5.968 2.031,-10.968 v -17.456 c 0,-2.476 0.07,-4.679 0.214,-6.738 0.014,-0.203 -0.057,-0.401 -0.195,-0.55 -0.139,-0.15 -0.332,-0.236 -0.536,-0.236 z m -16.892,26.028 c -0.605,-0.24 -7.609,-3.216 -7.013,-11.813 0.551,-7.939 5.716,-10.454 6.517,-10.796 1.278,-0.501 2.701,-0.77 4.242,-0.77 1.665,0 3.113,0.327 4.354,0.871 6.845,3.873 7.696,16.454 0.884,21.469 -1.592,1 -3.436,1.573 -5.345,1.573 -1.343,10e-4 -2.553,-0.192 -3.639,-0.534 z"
           id="path3956" />
        <path
           style="fill:url(#linearGradient4655)"
           inkscape:connector-curvature="0"
           d="m 501.11674,440.93115 c -2.337,2.339 -4.109,5.342 -5.032,8.657 -6.076,-0.094 -12.171,2.271 -17.007,7.109 -8.142,8.141 -10.674,22.911 0.667,34.251 9.542,9.545 23.793,9.688 33.145,0.336 4.421,-4.424 7.236,-10.507 7.297,-16.94 3.14,-0.837 6.125,-2.508 8.67,-5.049 6.956,-6.959 9.086,-18.919 -0.311,-28.318 -7.833,-7.83 -19.626,-7.848 -27.429,-0.046 z m 25.622,20.423 c -1.335,1.339 -3.045,2.324 -4.932,2.864 -3.027,0.868 -4.657,0.776 -5.698,2.515 -1.041,1.736 -0.926,1.941 -0.88,5.193 0.056,3.689 -1.333,7.515 -4.813,10.996 -5.32,5.317 -15.14,6.504 -22.366,-0.722 -5.693,-5.693 -8.365,-15.278 -0.778,-22.864 2.816,-2.814 6.866,-4.479 11.124,-4.403 2.961,0.053 3.306,0.161 5.212,-0.703 1.909,-0.868 1.082,-2.799 2.222,-6.205 0.556,-1.66 1.545,-3.294 3.092,-4.844 4.126,-4.125 11.721,-5.071 17.285,0.491 4.533,4.535 6.455,11.76 0.532,17.682 z"
           id="path3963" />
      </g>
    </g>
    <g
       inkscape:label="レイヤー 1"
       id="g5388"
       transform="matrix(0.56558572,0,0,0.56558572,346.10986,193.67656)">
      <g
         id="g5390">
        <path
           id="path5392"
           d="m 470.75274,454.90715 c -1.336,-0.292 -2.281,-0.45 -3.442,-0.45 -2.847,0 -5.33,0.832 -7.391,2.467 -0.091,0.062 -0.192,0.142 -0.303,0.247 -0.231,0.197 -0.452,0.405 -0.668,0.621 -1.478,1.313 -2.76,1.95 -2.76,-1.235 v -0.666 c 0,-0.404 -0.327,-0.733 -0.732,-0.733 h -2.101 c -0.198,0 -0.388,0.081 -0.525,0.223 -0.139,0.143 -0.212,0.335 -0.206,0.533 0.105,3.333 0.215,6.778 0.215,9.622 v 18.749 c 0,0.403 0.328,0.731 0.732,0.731 h 2.209 c 0.404,0 0.732,-0.328 0.732,-0.731 v -9.913 c 0,-1.371 0.107,-3.805 0.309,-4.813 1.569,-7.798 4.982,-11.59 10.435,-11.59 0.979,0 1.881,0.164 2.874,0.364 0.048,0.01 0.096,0.013 0.144,0.013 0.148,0 0.294,-0.043 0.417,-0.129 0.163,-0.113 0.273,-0.288 0.306,-0.485 l 0.323,-1.993 c 0.062,-0.386 -0.187,-0.752 -0.568,-0.832 z"
           inkscape:connector-curvature="0" />
        <path
           id="path5394"
           d="m 444.70074,454.90715 c -1.337,-0.292 -2.281,-0.45 -3.442,-0.45 -2.847,0 -5.33,0.832 -7.391,2.467 -0.092,0.062 -0.192,0.142 -0.303,0.247 -0.231,0.197 -0.452,0.405 -0.668,0.621 -1.478,1.313 -2.759,1.95 -2.759,-1.235 v -0.666 c 0,-0.404 -0.327,-0.733 -0.732,-0.733 h -2.101 c -0.198,0 -0.388,0.081 -0.526,0.223 -0.138,0.143 -0.212,0.335 -0.206,0.533 0.105,3.333 0.215,6.778 0.215,9.622 v 18.749 c 0,0.403 0.327,0.731 0.732,0.731 h 2.209 c 0.404,0 0.732,-0.328 0.732,-0.731 v -9.913 c 0,-1.371 0.107,-3.805 0.309,-4.813 1.569,-7.798 4.983,-11.59 10.435,-11.59 0.979,0 1.881,0.164 2.874,0.364 0.048,0.01 0.096,0.013 0.144,0.013 0.148,0 0.294,-0.043 0.417,-0.129 0.163,-0.113 0.273,-0.288 0.306,-0.485 l 0.323,-1.993 c 0.061,-0.386 -0.188,-0.752 -0.568,-0.832 z"
           inkscape:connector-curvature="0" />
        <path
           id="path5396"
           d="m 559.79974,456.49815 c -2.512,-1.775 -5.292,-2.041 -6.726,-2.041 -2.91,0 -5.648,0.913 -7.822,2.496 -0.005,0.003 -0.01,0.003 -0.014,0.007 -1.004,0.649 -2.627,0.911 -2.618,-0.624 l 0,-0.021 c 0.002,-0.107 -0.003,-0.198 -0.013,-0.278 l -0.008,-0.181 c -0.019,-0.391 -0.34,-0.699 -0.731,-0.699 h -2.102 c -0.203,0 -0.396,0.086 -0.535,0.232 -0.138,0.148 -0.209,0.348 -0.195,0.549 0.152,2.282 0.214,4.17 0.214,6.526 v 21.819 c 0,0.403 0.328,0.731 0.731,0.731 h 2.209 c 0.404,0 0.732,-0.328 0.732,-0.731 v -17.51 c 0,-0.815 0.253,-1.763 0.49,-2.378 0.004,-0.01 0.006,-0.016 0.01,-0.026 1.043,-3.042 4.224,-6.118 8.417,-6.474 3.236,0 8.327,2.358 9.024,8.226 0.016,0.15 0.03,0.299 0.042,0.443 0.004,0.05 0.008,0.099 0.011,0.148 0.005,0.07 0.009,0.14 0.014,0.209 0.009,0.19 0.015,0.386 0.015,0.584 0,0.332 0.006,0.636 0.017,0.909 v 15.868 c 0,0.403 0.328,0.731 0.733,0.731 h 2.208 c 0.404,0 0.732,-0.328 0.732,-0.731 v -16.271 c 0,-5.372 -1.627,-9.246 -4.835,-11.513 z"
           inkscape:connector-curvature="0" />
        <path
           id="path5398"
           d="m 636.02374,481.83915 c -0.133,-0.111 -0.301,-0.173 -0.473,-0.173 -0.04,0 -0.08,0.005 -0.12,0.01 -0.587,0.097 -0.965,0.097 -1.442,0.097 -1.147,0 -2.177,-0.334 -2.177,-4.386 v -9.913 c 0,-2.344 -0.179,-5.367 -1.583,-7.971 -1.822,-3.384 -5.181,-5.099 -9.978,-5.099 -2.475,0 -6.217,0.516 -9.99,2.974 -0.315,0.205 -0.422,0.614 -0.25,0.949 l 0.861,1.67 c 0.098,0.188 0.272,0.325 0.478,0.377 0.058,0.013 0.116,0.019 0.173,0.019 0.151,0 0.299,-0.046 0.424,-0.133 2.314,-1.64 5.186,-2.506 8.305,-2.506 3.995,0 6.004,1.854 7,3.939 0,0 0,0 0,0.002 1.004,2.219 -0.561,4.402 -2.285,4.584 -0.085,0.005 -0.17,0.006 -0.254,0.012 -0.014,0 -0.028,0 -0.042,0 -0.055,-0.002 -0.101,0.002 -0.143,0.009 -10.978,0.628 -16.538,4.312 -16.538,10.98 0,2.028 0.803,4.057 2.202,5.569 1.233,1.332 3.56,2.92 7.635,2.92 3.471,0 6.271,-1.111 8.325,-2.472 0.061,-0.032 0.13,-0.076 0.211,-0.141 0.023,-0.017 0.042,-0.029 0.064,-0.047 0.128,-0.09 0.256,-0.18 0.378,-0.269 1.275,-0.825 1.969,-0.351 2.623,0.502 0.002,0.005 0.006,0.006 0.008,0.008 0.84,1.143 2.161,1.72 3.962,1.72 0.846,0 1.591,-0.094 2.344,-0.296 0.32,-0.086 0.543,-0.374 0.543,-0.706 v -1.672 c -0.002,-0.215 -0.097,-0.417 -0.261,-0.557 z m -18.252,0.529 c -3.042,0 -6.111,-1.725 -6.111,-5.573 0,-4.862 5.936,-6.58 12.167,-7.043 2.32,-0.043 4.097,2.161 4.311,4.575 v 0.988 c -0.062,0.647 -0.246,1.289 -0.568,1.889 -0.162,0.263 -0.356,0.556 -0.589,0.864 -0.04,0.048 -0.075,0.092 -0.103,0.134 -1.442,1.848 -4.223,4.166 -9.107,4.166 z"
           inkscape:connector-curvature="0" />
        <path
           id="path5400"
           d="m 599.89174,455.15715 h -2.047 c -0.393,0 -0.716,0.31 -0.731,0.704 -0.066,1.617 -0.892,1.835 -2.703,0.766 -0.009,-0.008 -0.018,-0.013 -0.027,-0.021 -0.178,-0.118 -0.362,-0.229 -0.546,-0.339 -0.011,-0.005 -0.02,-0.011 -0.031,-0.019 -0.087,-0.059 -0.168,-0.102 -0.244,-0.139 -1.982,-1.097 -4.307,-1.652 -6.924,-1.652 -3.739,0 -7.429,1.549 -10.122,4.249 -2.082,2.089 -4.564,5.828 -4.564,11.785 0,3.816 1.346,7.414 3.792,10.122 2.595,2.873 6.234,4.458 10.248,4.458 3.111,0 5.514,-0.822 7.335,-1.898 0.004,0 0.007,-0.003 0.012,-0.004 1.954,-0.874 3.603,-2.182 3.135,2.233 -0.875,5.677 -4.519,8.764 -10.482,8.764 -4.175,0 -7.31,-1.406 -9.204,-2.583 -0.118,-0.073 -0.251,-0.111 -0.387,-0.111 -0.06,0 -0.122,0.008 -0.182,0.022 -0.193,0.051 -0.358,0.177 -0.456,0.351 l -0.97,1.725 c -0.189,0.335 -0.085,0.763 0.237,0.972 2.853,1.864 6.91,2.976 10.854,2.976 2.689,0 9.293,-0.624 12.493,-6.413 1.385,-2.482 2.031,-5.968 2.031,-10.968 v -17.456 c 0,-2.476 0.07,-4.679 0.214,-6.738 0.014,-0.203 -0.057,-0.401 -0.195,-0.55 -0.139,-0.15 -0.332,-0.236 -0.536,-0.236 z m -16.892,26.028 c -0.605,-0.24 -7.609,-3.216 -7.013,-11.813 0.551,-7.939 5.716,-10.454 6.517,-10.796 1.278,-0.501 2.701,-0.77 4.242,-0.77 1.665,0 3.113,0.327 4.354,0.871 6.845,3.873 7.696,16.454 0.884,21.469 -1.592,1 -3.436,1.573 -5.345,1.573 -1.343,10e-4 -2.553,-0.192 -3.639,-0.534 z"
           inkscape:connector-curvature="0" />
        <path
           id="path5402"
           d="m 501.11674,440.93115 c -2.337,2.339 -4.109,5.342 -5.032,8.657 -6.076,-0.094 -12.171,2.271 -17.007,7.109 -8.142,8.141 -10.674,22.911 0.667,34.251 9.542,9.545 23.793,9.688 33.145,0.336 4.421,-4.424 7.236,-10.507 7.297,-16.94 3.14,-0.837 6.125,-2.508 8.67,-5.049 6.956,-6.959 9.086,-18.919 -0.311,-28.318 -7.833,-7.83 -19.626,-7.848 -27.429,-0.046 z m 25.622,20.423 c -1.335,1.339 -3.045,2.324 -4.932,2.864 -3.027,0.868 -4.657,0.776 -5.698,2.515 -1.041,1.736 -0.926,1.941 -0.88,5.193 0.056,3.689 -1.333,7.515 -4.813,10.996 -5.32,5.317 -15.14,6.504 -22.366,-0.722 -5.693,-5.693 -8.365,-15.278 -0.778,-22.864 2.816,-2.814 6.866,-4.479 11.124,-4.403 2.961,0.053 3.306,0.161 5.212,-0.703 1.909,-0.868 1.082,-2.799 2.222,-6.205 0.556,-1.66 1.545,-3.294 3.092,-4.844 4.126,-4.125 11.721,-5.071 17.285,0.491 4.533,4.535 6.455,11.76 0.532,17.682 z"
           inkscape:connector-curvature="0"
           style="fill:url(#linearGradient5404)" />
      </g>
    </g>
    <g
       transform="matrix(0.56558572,0,0,0.56558572,176.10986,193.67656)"
       id="g5406"
       inkscape:label="レイヤー 1">
      <g
         id="g5408">
        <path
           inkscape:connector-curvature="0"
           d="m 470.75274,454.90715 c -1.336,-0.292 -2.281,-0.45 -3.442,-0.45 -2.847,0 -5.33,0.832 -7.391,2.467 -0.091,0.062 -0.192,0.142 -0.303,0.247 -0.231,0.197 -0.452,0.405 -0.668,0.621 -1.478,1.313 -2.76,1.95 -2.76,-1.235 v -0.666 c 0,-0.404 -0.327,-0.733 -0.732,-0.733 h -2.101 c -0.198,0 -0.388,0.081 -0.525,0.223 -0.139,0.143 -0.212,0.335 -0.206,0.533 0.105,3.333 0.215,6.778 0.215,9.622 v 18.749 c 0,0.403 0.328,0.731 0.732,0.731 h 2.209 c 0.404,0 0.732,-0.328 0.732,-0.731 v -9.913 c 0,-1.371 0.107,-3.805 0.309,-4.813 1.569,-7.798 4.982,-11.59 10.435,-11.59 0.979,0 1.881,0.164 2.874,0.364 0.048,0.01 0.096,0.013 0.144,0.013 0.148,0 0.294,-0.043 0.417,-0.129 0.163,-0.113 0.273,-0.288 0.306,-0.485 l 0.323,-1.993 c 0.062,-0.386 -0.187,-0.752 -0.568,-0.832 z"
           id="path5410" />
        <path
           inkscape:connector-curvature="0"
           d="m 444.70074,454.90715 c -1.337,-0.292 -2.281,-0.45 -3.442,-0.45 -2.847,0 -5.33,0.832 -7.391,2.467 -0.092,0.062 -0.192,0.142 -0.303,0.247 -0.231,0.197 -0.452,0.405 -0.668,0.621 -1.478,1.313 -2.759,1.95 -2.759,-1.235 v -0.666 c 0,-0.404 -0.327,-0.733 -0.732,-0.733 h -2.101 c -0.198,0 -0.388,0.081 -0.526,0.223 -0.138,0.143 -0.212,0.335 -0.206,0.533 0.105,3.333 0.215,6.778 0.215,9.622 v 18.749 c 0,0.403 0.327,0.731 0.732,0.731 h 2.209 c 0.404,0 0.732,-0.328 0.732,-0.731 v -9.913 c 0,-1.371 0.107,-3.805 0.309,-4.813 1.569,-7.798 4.983,-11.59 10.435,-11.59 0.979,0 1.881,0.164 2.874,0.364 0.048,0.01 0.096,0.013 0.144,0.013 0.148,0 0.294,-0.043 0.417,-0.129 0.163,-0.113 0.273,-0.288 0.306,-0.485 l 0.323,-1.993 c 0.061,-0.386 -0.188,-0.752 -0.568,-0.832 z"
           id="path5412" />
        <path
           inkscape:connector-curvature="0"
           d="m 559.79974,456.49815 c -2.512,-1.775 -5.292,-2.041 -6.726,-2.041 -2.91,0 -5.648,0.913 -7.822,2.496 -0.005,0.003 -0.01,0.003 -0.014,0.007 -1.004,0.649 -2.627,0.911 -2.618,-0.624 l 0,-0.021 c 0.002,-0.107 -0.003,-0.198 -0.013,-0.278 l -0.008,-0.181 c -0.019,-0.391 -0.34,-0.699 -0.731,-0.699 h -2.102 c -0.203,0 -0.396,0.086 -0.535,0.232 -0.138,0.148 -0.209,0.348 -0.195,0.549 0.152,2.282 0.214,4.17 0.214,6.526 v 21.819 c 0,0.403 0.328,0.731 0.731,0.731 h 2.209 c 0.404,0 0.732,-0.328 0.732,-0.731 v -17.51 c 0,-0.815 0.253,-1.763 0.49,-2.378 0.004,-0.01 0.006,-0.016 0.01,-0.026 1.043,-3.042 4.224,-6.118 8.417,-6.474 3.236,0 8.327,2.358 9.024,8.226 0.016,0.15 0.03,0.299 0.042,0.443 0.004,0.05 0.008,0.099 0.011,0.148 0.005,0.07 0.009,0.14 0.014,0.209 0.009,0.19 0.015,0.386 0.015,0.584 0,0.332 0.006,0.636 0.017,0.909 v 15.868 c 0,0.403 0.328,0.731 0.733,0.731 h 2.208 c 0.404,0 0.732,-0.328 0.732,-0.731 v -16.271 c 0,-5.372 -1.627,-9.246 -4.835,-11.513 z"
           id="path5414" />
        <path
           inkscape:connector-curvature="0"
           d="m 636.02374,481.83915 c -0.133,-0.111 -0.301,-0.173 -0.473,-0.173 -0.04,0 -0.08,0.005 -0.12,0.01 -0.587,0.097 -0.965,0.097 -1.442,0.097 -1.147,0 -2.177,-0.334 -2.177,-4.386 v -9.913 c 0,-2.344 -0.179,-5.367 -1.583,-7.971 -1.822,-3.384 -5.181,-5.099 -9.978,-5.099 -2.475,0 -6.217,0.516 -9.99,2.974 -0.315,0.205 -0.422,0.614 -0.25,0.949 l 0.861,1.67 c 0.098,0.188 0.272,0.325 0.478,0.377 0.058,0.013 0.116,0.019 0.173,0.019 0.151,0 0.299,-0.046 0.424,-0.133 2.314,-1.64 5.186,-2.506 8.305,-2.506 3.995,0 6.004,1.854 7,3.939 0,0 0,0 0,0.002 1.004,2.219 -0.561,4.402 -2.285,4.584 -0.085,0.005 -0.17,0.006 -0.254,0.012 -0.014,0 -0.028,0 -0.042,0 -0.055,-0.002 -0.101,0.002 -0.143,0.009 -10.978,0.628 -16.538,4.312 -16.538,10.98 0,2.028 0.803,4.057 2.202,5.569 1.233,1.332 3.56,2.92 7.635,2.92 3.471,0 6.271,-1.111 8.325,-2.472 0.061,-0.032 0.13,-0.076 0.211,-0.141 0.023,-0.017 0.042,-0.029 0.064,-0.047 0.128,-0.09 0.256,-0.18 0.378,-0.269 1.275,-0.825 1.969,-0.351 2.623,0.502 0.002,0.005 0.006,0.006 0.008,0.008 0.84,1.143 2.161,1.72 3.962,1.72 0.846,0 1.591,-0.094 2.344,-0.296 0.32,-0.086 0.543,-0.374 0.543,-0.706 v -1.672 c -0.002,-0.215 -0.097,-0.417 -0.261,-0.557 z m -18.252,0.529 c -3.042,0 -6.111,-1.725 -6.111,-5.573 0,-4.862 5.936,-6.58 12.167,-7.043 2.32,-0.043 4.097,2.161 4.311,4.575 v 0.988 c -0.062,0.647 -0.246,1.289 -0.568,1.889 -0.162,0.263 -0.356,0.556 -0.589,0.864 -0.04,0.048 -0.075,0.092 -0.103,0.134 -1.442,1.848 -4.223,4.166 -9.107,4.166 z"
           id="path5416" />
        <path
           inkscape:connector-curvature="0"
           d="m 599.89174,455.15715 h -2.047 c -0.393,0 -0.716,0.31 -0.731,0.704 -0.066,1.617 -0.892,1.835 -2.703,0.766 -0.009,-0.008 -0.018,-0.013 -0.027,-0.021 -0.178,-0.118 -0.362,-0.229 -0.546,-0.339 -0.011,-0.005 -0.02,-0.011 -0.031,-0.019 -0.087,-0.059 -0.168,-0.102 -0.244,-0.139 -1.982,-1.097 -4.307,-1.652 -6.924,-1.652 -3.739,0 -7.429,1.549 -10.122,4.249 -2.082,2.089 -4.564,5.828 -4.564,11.785 0,3.816 1.346,7.414 3.792,10.122 2.595,2.873 6.234,4.458 10.248,4.458 3.111,0 5.514,-0.822 7.335,-1.898 0.004,0 0.007,-0.003 0.012,-0.004 1.954,-0.874 3.603,-2.182 3.135,2.233 -0.875,5.677 -4.519,8.764 -10.482,8.764 -4.175,0 -7.31,-1.406 -9.204,-2.583 -0.118,-0.073 -0.251,-0.111 -0.387,-0.111 -0.06,0 -0.122,0.008 -0.182,0.022 -0.193,0.051 -0.358,0.177 -0.456,0.351 l -0.97,1.725 c -0.189,0.335 -0.085,0.763 0.237,0.972 2.853,1.864 6.91,2.976 10.854,2.976 2.689,0 9.293,-0.624 12.493,-6.413 1.385,-2.482 2.031,-5.968 2.031,-10.968 v -17.456 c 0,-2.476 0.07,-4.679 0.214,-6.738 0.014,-0.203 -0.057,-0.401 -0.195,-0.55 -0.139,-0.15 -0.332,-0.236 -0.536,-0.236 z m -16.892,26.028 c -0.605,-0.24 -7.609,-3.216 -7.013,-11.813 0.551,-7.939 5.716,-10.454 6.517,-10.796 1.278,-0.501 2.701,-0.77 4.242,-0.77 1.665,0 3.113,0.327 4.354,0.871 6.845,3.873 7.696,16.454 0.884,21.469 -1.592,1 -3.436,1.573 -5.345,1.573 -1.343,10e-4 -2.553,-0.192 -3.639,-0.534 z"
           id="path5418" />
        <path
           style="fill:url(#linearGradient5422)"
           inkscape:connector-curvature="0"
           d="m 501.11674,440.93115 c -2.337,2.339 -4.109,5.342 -5.032,8.657 -6.076,-0.094 -12.171,2.271 -17.007,7.109 -8.142,8.141 -10.674,22.911 0.667,34.251 9.542,9.545 23.793,9.688 33.145,0.336 4.421,-4.424 7.236,-10.507 7.297,-16.94 3.14,-0.837 6.125,-2.508 8.67,-5.049 6.956,-6.959 9.086,-18.919 -0.311,-28.318 -7.833,-7.83 -19.626,-7.848 -27.429,-0.046 z m 25.622,20.423 c -1.335,1.339 -3.045,2.324 -4.932,2.864 -3.027,0.868 -4.657,0.776 -5.698,2.515 -1.041,1.736 -0.926,1.941 -0.88,5.193 0.056,3.689 -1.333,7.515 -4.813,10.996 -5.32,5.317 -15.14,6.504 -22.366,-0.722 -5.693,-5.693 -8.365,-15.278 -0.778,-22.864 2.816,-2.814 6.866,-4.479 11.124,-4.403 2.961,0.053 3.306,0.161 5.212,-0.703 1.909,-0.868 1.082,-2.799 2.222,-6.205 0.556,-1.66 1.545,-3.294 3.092,-4.844 4.126,-4.125 11.721,-5.071 17.285,0.491 4.533,4.535 6.455,11.76 0.532,17.682 z"
           id="path5420" />
      </g>
    </g>
    <g
       inkscape:label="レイヤー 1"
       id="g5424"
       transform="matrix(0.56558572,0,0,0.56558572,4.10986,193.67656)">
      <g
         id="g5426">
        <path
           id="path5428"
           d="m 470.75274,454.90715 c -1.336,-0.292 -2.281,-0.45 -3.442,-0.45 -2.847,0 -5.33,0.832 -7.391,2.467 -0.091,0.062 -0.192,0.142 -0.303,0.247 -0.231,0.197 -0.452,0.405 -0.668,0.621 -1.478,1.313 -2.76,1.95 -2.76,-1.235 v -0.666 c 0,-0.404 -0.327,-0.733 -0.732,-0.733 h -2.101 c -0.198,0 -0.388,0.081 -0.525,0.223 -0.139,0.143 -0.212,0.335 -0.206,0.533 0.105,3.333 0.215,6.778 0.215,9.622 v 18.749 c 0,0.403 0.328,0.731 0.732,0.731 h 2.209 c 0.404,0 0.732,-0.328 0.732,-0.731 v -9.913 c 0,-1.371 0.107,-3.805 0.309,-4.813 1.569,-7.798 4.982,-11.59 10.435,-11.59 0.979,0 1.881,0.164 2.874,0.364 0.048,0.01 0.096,0.013 0.144,0.013 0.148,0 0.294,-0.043 0.417,-0.129 0.163,-0.113 0.273,-0.288 0.306,-0.485 l 0.323,-1.993 c 0.062,-0.386 -0.187,-0.752 -0.568,-0.832 z"
           inkscape:connector-curvature="0" />
        <path
           id="path5430"
           d="m 444.70074,454.90715 c -1.337,-0.292 -2.281,-0.45 -3.442,-0.45 -2.847,0 -5.33,0.832 -7.391,2.467 -0.092,0.062 -0.192,0.142 -0.303,0.247 -0.231,0.197 -0.452,0.405 -0.668,0.621 -1.478,1.313 -2.759,1.95 -2.759,-1.235 v -0.666 c 0,-0.404 -0.327,-0.733 -0.732,-0.733 h -2.101 c -0.198,0 -0.388,0.081 -0.526,0.223 -0.138,0.143 -0.212,0.335 -0.206,0.533 0.105,3.333 0.215,6.778 0.215,9.622 v 18.749 c 0,0.403 0.327,0.731 0.732,0.731 h 2.209 c 0.404,0 0.732,-0.328 0.732,-0.731 v -9.913 c 0,-1.371 0.107,-3.805 0.309,-4.813 1.569,-7.798 4.983,-11.59 10.435,-11.59 0.979,0 1.881,0.164 2.874,0.364 0.048,0.01 0.096,0.013 0.144,0.013 0.148,0 0.294,-0.043 0.417,-0.129 0.163,-0.113 0.273,-0.288 0.306,-0.485 l 0.323,-1.993 c 0.061,-0.386 -0.188,-0.752 -0.568,-0.832 z"
           inkscape:connector-curvature="0" />
        <path
           id="path5432"
           d="m 559.79974,456.49815 c -2.512,-1.775 -5.292,-2.041 -6.726,-2.041 -2.91,0 -5.648,0.913 -7.822,2.496 -0.005,0.003 -0.01,0.003 -0.014,0.007 -1.004,0.649 -2.627,0.911 -2.618,-0.624 l 0,-0.021 c 0.002,-0.107 -0.003,-0.198 -0.013,-0.278 l -0.008,-0.181 c -0.019,-0.391 -0.34,-0.699 -0.731,-0.699 h -2.102 c -0.203,0 -0.396,0.086 -0.535,0.232 -0.138,0.148 -0.209,0.348 -0.195,0.549 0.152,2.282 0.214,4.17 0.214,6.526 v 21.819 c 0,0.403 0.328,0.731 0.731,0.731 h 2.209 c 0.404,0 0.732,-0.328 0.732,-0.731 v -17.51 c 0,-0.815 0.253,-1.763 0.49,-2.378 0.004,-0.01 0.006,-0.016 0.01,-0.026 1.043,-3.042 4.224,-6.118 8.417,-6.474 3.236,0 8.327,2.358 9.024,8.226 0.016,0.15 0.03,0.299 0.042,0.443 0.004,0.05 0.008,0.099 0.011,0.148 0.005,0.07 0.009,0.14 0.014,0.209 0.009,0.19 0.015,0.386 0.015,0.584 0,0.332 0.006,0.636 0.017,0.909 v 15.868 c 0,0.403 0.328,0.731 0.733,0.731 h 2.208 c 0.404,0 0.732,-0.328 0.732,-0.731 v -16.271 c 0,-5.372 -1.627,-9.246 -4.835,-11.513 z"
           inkscape:connector-curvature="0" />
        <path
           id="path5434"
           d="m 636.02374,481.83915 c -0.133,-0.111 -0.301,-0.173 -0.473,-0.173 -0.04,0 -0.08,0.005 -0.12,0.01 -0.587,0.097 -0.965,0.097 -1.442,0.097 -1.147,0 -2.177,-0.334 -2.177,-4.386 v -9.913 c 0,-2.344 -0.179,-5.367 -1.583,-7.971 -1.822,-3.384 -5.181,-5.099 -9.978,-5.099 -2.475,0 -6.217,0.516 -9.99,2.974 -0.315,0.205 -0.422,0.614 -0.25,0.949 l 0.861,1.67 c 0.098,0.188 0.272,0.325 0.478,0.377 0.058,0.013 0.116,0.019 0.173,0.019 0.151,0 0.299,-0.046 0.424,-0.133 2.314,-1.64 5.186,-2.506 8.305,-2.506 3.995,0 6.004,1.854 7,3.939 0,0 0,0 0,0.002 1.004,2.219 -0.561,4.402 -2.285,4.584 -0.085,0.005 -0.17,0.006 -0.254,0.012 -0.014,0 -0.028,0 -0.042,0 -0.055,-0.002 -0.101,0.002 -0.143,0.009 -10.978,0.628 -16.538,4.312 -16.538,10.98 0,2.028 0.803,4.057 2.202,5.569 1.233,1.332 3.56,2.92 7.635,2.92 3.471,0 6.271,-1.111 8.325,-2.472 0.061,-0.032 0.13,-0.076 0.211,-0.141 0.023,-0.017 0.042,-0.029 0.064,-0.047 0.128,-0.09 0.256,-0.18 0.378,-0.269 1.275,-0.825 1.969,-0.351 2.623,0.502 0.002,0.005 0.006,0.006 0.008,0.008 0.84,1.143 2.161,1.72 3.962,1.72 0.846,0 1.591,-0.094 2.344,-0.296 0.32,-0.086 0.543,-0.374 0.543,-0.706 v -1.672 c -0.002,-0.215 -0.097,-0.417 -0.261,-0.557 z m -18.252,0.529 c -3.042,0 -6.111,-1.725 -6.111,-5.573 0,-4.862 5.936,-6.58 12.167,-7.043 2.32,-0.043 4.097,2.161 4.311,4.575 v 0.988 c -0.062,0.647 -0.246,1.289 -0.568,1.889 -0.162,0.263 -0.356,0.556 -0.589,0.864 -0.04,0.048 -0.075,0.092 -0.103,0.134 -1.442,1.848 -4.223,4.166 -9.107,4.166 z"
           inkscape:connector-curvature="0" />
        <path
           id="path5436"
           d="m 599.89174,455.15715 h -2.047 c -0.393,0 -0.716,0.31 -0.731,0.704 -0.066,1.617 -0.892,1.835 -2.703,0.766 -0.009,-0.008 -0.018,-0.013 -0.027,-0.021 -0.178,-0.118 -0.362,-0.229 -0.546,-0.339 -0.011,-0.005 -0.02,-0.011 -0.031,-0.019 -0.087,-0.059 -0.168,-0.102 -0.244,-0.139 -1.982,-1.097 -4.307,-1.652 -6.924,-1.652 -3.739,0 -7.429,1.549 -10.122,4.249 -2.082,2.089 -4.564,5.828 -4.564,11.785 0,3.816 1.346,7.414 3.792,10.122 2.595,2.873 6.234,4.458 10.248,4.458 3.111,0 5.514,-0.822 7.335,-1.898 0.004,0 0.007,-0.003 0.012,-0.004 1.954,-0.874 3.603,-2.182 3.135,2.233 -0.875,5.677 -4.519,8.764 -10.482,8.764 -4.175,0 -7.31,-1.406 -9.204,-2.583 -0.118,-0.073 -0.251,-0.111 -0.387,-0.111 -0.06,0 -0.122,0.008 -0.182,0.022 -0.193,0.051 -0.358,0.177 -0.456,0.351 l -0.97,1.725 c -0.189,0.335 -0.085,0.763 0.237,0.972 2.853,1.864 6.91,2.976 10.854,2.976 2.689,0 9.293,-0.624 12.493,-6.413 1.385,-2.482 2.031,-5.968 2.031,-10.968 v -17.456 c 0,-2.476 0.07,-4.679 0.214,-6.738 0.014,-0.203 -0.057,-0.401 -0.195,-0.55 -0.139,-0.15 -0.332,-0.236 -0.536,-0.236 z m -16.892,26.028 c -0.605,-0.24 -7.609,-3.216 -7.013,-11.813 0.551,-7.939 5.716,-10.454 6.517,-10.796 1.278,-0.501 2.701,-0.77 4.242,-0.77 1.665,0 3.113,0.327 4.354,0.871 6.845,3.873 7.696,16.454 0.884,21.469 -1.592,1 -3.436,1.573 -5.345,1.573 -1.343,10e-4 -2.553,-0.192 -3.639,-0.534 z"
           inkscape:connector-curvature="0" />
        <path
           id="path5438"
           d="m 501.11674,440.93115 c -2.337,2.339 -4.109,5.342 -5.032,8.657 -6.076,-0.094 -12.171,2.271 -17.007,7.109 -8.142,8.141 -10.674,22.911 0.667,34.251 9.542,9.545 23.793,9.688 33.145,0.336 4.421,-4.424 7.236,-10.507 7.297,-16.94 3.14,-0.837 6.125,-2.508 8.67,-5.049 6.956,-6.959 9.086,-18.919 -0.311,-28.318 -7.833,-7.83 -19.626,-7.848 -27.429,-0.046 z m 25.622,20.423 c -1.335,1.339 -3.045,2.324 -4.932,2.864 -3.027,0.868 -4.657,0.776 -5.698,2.515 -1.041,1.736 -0.926,1.941 -0.88,5.193 0.056,3.689 -1.333,7.515 -4.813,10.996 -5.32,5.317 -15.14,6.504 -22.366,-0.722 -5.693,-5.693 -8.365,-15.278 -0.778,-22.864 2.816,-2.814 6.866,-4.479 11.124,-4.403 2.961,0.053 3.306,0.161 5.212,-0.703 1.909,-0.868 1.082,-2.799 2.222,-6.205 0.556,-1.66 1.545,-3.294 3.092,-4.844 4.126,-4.125 11.721,-5.071 17.285,0.491 4.533,4.535 6.455,11.76 0.532,17.682 z"
           inkscape:connector-curvature="0"
           style="fill:url(#linearGradient5440)" />
      </g>
    </g>
    <g
       transform="matrix(0.56558572,0,0,0.56558572,4.10986,349.67656)"
       id="g5442"
       inkscape:label="レイヤー 1">
      <g
         id="g5444">
        <path
           inkscape:connector-curvature="0"
           d="m 470.75274,454.90715 c -1.336,-0.292 -2.281,-0.45 -3.442,-0.45 -2.847,0 -5.33,0.832 -7.391,2.467 -0.091,0.062 -0.192,0.142 -0.303,0.247 -0.231,0.197 -0.452,0.405 -0.668,0.621 -1.478,1.313 -2.76,1.95 -2.76,-1.235 v -0.666 c 0,-0.404 -0.327,-0.733 -0.732,-0.733 h -2.101 c -0.198,0 -0.388,0.081 -0.525,0.223 -0.139,0.143 -0.212,0.335 -0.206,0.533 0.105,3.333 0.215,6.778 0.215,9.622 v 18.749 c 0,0.403 0.328,0.731 0.732,0.731 h 2.209 c 0.404,0 0.732,-0.328 0.732,-0.731 v -9.913 c 0,-1.371 0.107,-3.805 0.309,-4.813 1.569,-7.798 4.982,-11.59 10.435,-11.59 0.979,0 1.881,0.164 2.874,0.364 0.048,0.01 0.096,0.013 0.144,0.013 0.148,0 0.294,-0.043 0.417,-0.129 0.163,-0.113 0.273,-0.288 0.306,-0.485 l 0.323,-1.993 c 0.062,-0.386 -0.187,-0.752 -0.568,-0.832 z"
           id="path5446" />
        <path
           inkscape:connector-curvature="0"
           d="m 444.70074,454.90715 c -1.337,-0.292 -2.281,-0.45 -3.442,-0.45 -2.847,0 -5.33,0.832 -7.391,2.467 -0.092,0.062 -0.192,0.142 -0.303,0.247 -0.231,0.197 -0.452,0.405 -0.668,0.621 -1.478,1.313 -2.759,1.95 -2.759,-1.235 v -0.666 c 0,-0.404 -0.327,-0.733 -0.732,-0.733 h -2.101 c -0.198,0 -0.388,0.081 -0.526,0.223 -0.138,0.143 -0.212,0.335 -0.206,0.533 0.105,3.333 0.215,6.778 0.215,9.622 v 18.749 c 0,0.403 0.327,0.731 0.732,0.731 h 2.209 c 0.404,0 0.732,-0.328 0.732,-0.731 v -9.913 c 0,-1.371 0.107,-3.805 0.309,-4.813 1.569,-7.798 4.983,-11.59 10.435,-11.59 0.979,0 1.881,0.164 2.874,0.364 0.048,0.01 0.096,0.013 0.144,0.013 0.148,0 0.294,-0.043 0.417,-0.129 0.163,-0.113 0.273,-0.288 0.306,-0.485 l 0.323,-1.993 c 0.061,-0.386 -0.188,-0.752 -0.568,-0.832 z"
           id="path5448" />
        <path
           inkscape:connector-curvature="0"
           d="m 559.79974,456.49815 c -2.512,-1.775 -5.292,-2.041 -6.726,-2.041 -2.91,0 -5.648,0.913 -7.822,2.496 -0.005,0.003 -0.01,0.003 -0.014,0.007 -1.004,0.649 -2.627,0.911 -2.618,-0.624 l 0,-0.021 c 0.002,-0.107 -0.003,-0.198 -0.013,-0.278 l -0.008,-0.181 c -0.019,-0.391 -0.34,-0.699 -0.731,-0.699 h -2.102 c -0.203,0 -0.396,0.086 -0.535,0.232 -0.138,0.148 -0.209,0.348 -0.195,0.549 0.152,2.282 0.214,4.17 0.214,6.526 v 21.819 c 0,0.403 0.328,0.731 0.731,0.731 h 2.209 c 0.404,0 0.732,-0.328 0.732,-0.731 v -17.51 c 0,-0.815 0.253,-1.763 0.49,-2.378 0.004,-0.01 0.006,-0.016 0.01,-0.026 1.043,-3.042 4.224,-6.118 8.417,-6.474 3.236,0 8.327,2.358 9.024,8.226 0.016,0.15 0.03,0.299 0.042,0.443 0.004,0.05 0.008,0.099 0.011,0.148 0.005,0.07 0.009,0.14 0.014,0.209 0.009,0.19 0.015,0.386 0.015,0.584 0,0.332 0.006,0.636 0.017,0.909 v 15.868 c 0,0.403 0.328,0.731 0.733,0.731 h 2.208 c 0.404,0 0.732,-0.328 0.732,-0.731 v -16.271 c 0,-5.372 -1.627,-9.246 -4.835,-11.513 z"
           id="path5450" />
        <path
           inkscape:connector-curvature="0"
           d="m 636.02374,481.83915 c -0.133,-0.111 -0.301,-0.173 -0.473,-0.173 -0.04,0 -0.08,0.005 -0.12,0.01 -0.587,0.097 -0.965,0.097 -1.442,0.097 -1.147,0 -2.177,-0.334 -2.177,-4.386 v -9.913 c 0,-2.344 -0.179,-5.367 -1.583,-7.971 -1.822,-3.384 -5.181,-5.099 -9.978,-5.099 -2.475,0 -6.217,0.516 -9.99,2.974 -0.315,0.205 -0.422,0.614 -0.25,0.949 l 0.861,1.67 c 0.098,0.188 0.272,0.325 0.478,0.377 0.058,0.013 0.116,0.019 0.173,0.019 0.151,0 0.299,-0.046 0.424,-0.133 2.314,-1.64 5.186,-2.506 8.305,-2.506 3.995,0 6.004,1.854 7,3.939 0,0 0,0 0,0.002 1.004,2.219 -0.561,4.402 -2.285,4.584 -0.085,0.005 -0.17,0.006 -0.254,0.012 -0.014,0 -0.028,0 -0.042,0 -0.055,-0.002 -0.101,0.002 -0.143,0.009 -10.978,0.628 -16.538,4.312 -16.538,10.98 0,2.028 0.803,4.057 2.202,5.569 1.233,1.332 3.56,2.92 7.635,2.92 3.471,0 6.271,-1.111 8.325,-2.472 0.061,-0.032 0.13,-0.076 0.211,-0.141 0.023,-0.017 0.042,-0.029 0.064,-0.047 0.128,-0.09 0.256,-0.18 0.378,-0.269 1.275,-0.825 1.969,-0.351 2.623,0.502 0.002,0.005 0.006,0.006 0.008,0.008 0.84,1.143 2.161,1.72 3.962,1.72 0.846,0 1.591,-0.094 2.344,-0.296 0.32,-0.086 0.543,-0.374 0.543,-0.706 v -1.672 c -0.002,-0.215 -0.097,-0.417 -0.261,-0.557 z m -18.252,0.529 c -3.042,0 -6.111,-1.725 -6.111,-5.573 0,-4.862 5.936,-6.58 12.167,-7.043 2.32,-0.043 4.097,2.161 4.311,4.575 v 0.988 c -0.062,0.647 -0.246,1.289 -0.568,1.889 -0.162,0.263 -0.356,0.556 -0.589,0.864 -0.04,0.048 -0.075,0.092 -0.103,0.134 -1.442,1.848 -4.223,4.166 -9.107,4.166 z"
           id="path5452" />
        <path
           inkscape:connector-curvature="0"
           d="m 599.89174,455.15715 h -2.047 c -0.393,0 -0.716,0.31 -0.731,0.704 -0.066,1.617 -0.892,1.835 -2.703,0.766 -0.009,-0.008 -0.018,-0.013 -0.027,-0.021 -0.178,-0.118 -0.362,-0.229 -0.546,-0.339 -0.011,-0.005 -0.02,-0.011 -0.031,-0.019 -0.087,-0.059 -0.168,-0.102 -0.244,-0.139 -1.982,-1.097 -4.307,-1.652 -6.924,-1.652 -3.739,0 -7.429,1.549 -10.122,4.249 -2.082,2.089 -4.564,5.828 -4.564,11.785 0,3.816 1.346,7.414 3.792,10.122 2.595,2.873 6.234,4.458 10.248,4.458 3.111,0 5.514,-0.822 7.335,-1.898 0.004,0 0.007,-0.003 0.012,-0.004 1.954,-0.874 3.603,-2.182 3.135,2.233 -0.875,5.677 -4.519,8.764 -10.482,8.764 -4.175,0 -7.31,-1.406 -9.204,-2.583 -0.118,-0.073 -0.251,-0.111 -0.387,-0.111 -0.06,0 -0.122,0.008 -0.182,0.022 -0.193,0.051 -0.358,0.177 -0.456,0.351 l -0.97,1.725 c -0.189,0.335 -0.085,0.763 0.237,0.972 2.853,1.864 6.91,2.976 10.854,2.976 2.689,0 9.293,-0.624 12.493,-6.413 1.385,-2.482 2.031,-5.968 2.031,-10.968 v -17.456 c 0,-2.476 0.07,-4.679 0.214,-6.738 0.014,-0.203 -0.057,-0.401 -0.195,-0.55 -0.139,-0.15 -0.332,-0.236 -0.536,-0.236 z m -16.892,26.028 c -0.605,-0.24 -7.609,-3.216 -7.013,-11.813 0.551,-7.939 5.716,-10.454 6.517,-10.796 1.278,-0.501 2.701,-0.77 4.242,-0.77 1.665,0 3.113,0.327 4.354,0.871 6.845,3.873 7.696,16.454 0.884,21.469 -1.592,1 -3.436,1.573 -5.345,1.573 -1.343,10e-4 -2.553,-0.192 -3.639,-0.534 z"
           id="path5454" />
        <path
           style="fill:url(#linearGradient5458)"
           inkscape:connector-curvature="0"
           d="m 501.11674,440.93115 c -2.337,2.339 -4.109,5.342 -5.032,8.657 -6.076,-0.094 -12.171,2.271 -17.007,7.109 -8.142,8.141 -10.674,22.911 0.667,34.251 9.542,9.545 23.793,9.688 33.145,0.336 4.421,-4.424 7.236,-10.507 7.297,-16.94 3.14,-0.837 6.125,-2.508 8.67,-5.049 6.956,-6.959 9.086,-18.919 -0.311,-28.318 -7.833,-7.83 -19.626,-7.848 -27.429,-0.046 z m 25.622,20.423 c -1.335,1.339 -3.045,2.324 -4.932,2.864 -3.027,0.868 -4.657,0.776 -5.698,2.515 -1.041,1.736 -0.926,1.941 -0.88,5.193 0.056,3.689 -1.333,7.515 -4.813,10.996 -5.32,5.317 -15.14,6.504 -22.366,-0.722 -5.693,-5.693 -8.365,-15.278 -0.778,-22.864 2.816,-2.814 6.866,-4.479 11.124,-4.403 2.961,0.053 3.306,0.161 5.212,-0.703 1.909,-0.868 1.082,-2.799 2.222,-6.205 0.556,-1.66 1.545,-3.294 3.092,-4.844 4.126,-4.125 11.721,-5.071 17.285,0.491 4.533,4.535 6.455,11.76 0.532,17.682 z"
           id="path5456" />
      </g>
    </g>
    <g
       inkscape:label="レイヤー 1"
       id="g5460"
       transform="matrix(0.56558572,0,0,0.56558572,174.10986,349.67656)">
      <g
         id="g5462">
        <path
           id="path5464"
           d="m 470.75274,454.90715 c -1.336,-0.292 -2.281,-0.45 -3.442,-0.45 -2.847,0 -5.33,0.832 -7.391,2.467 -0.091,0.062 -0.192,0.142 -0.303,0.247 -0.231,0.197 -0.452,0.405 -0.668,0.621 -1.478,1.313 -2.76,1.95 -2.76,-1.235 v -0.666 c 0,-0.404 -0.327,-0.733 -0.732,-0.733 h -2.101 c -0.198,0 -0.388,0.081 -0.525,0.223 -0.139,0.143 -0.212,0.335 -0.206,0.533 0.105,3.333 0.215,6.778 0.215,9.622 v 18.749 c 0,0.403 0.328,0.731 0.732,0.731 h 2.209 c 0.404,0 0.732,-0.328 0.732,-0.731 v -9.913 c 0,-1.371 0.107,-3.805 0.309,-4.813 1.569,-7.798 4.982,-11.59 10.435,-11.59 0.979,0 1.881,0.164 2.874,0.364 0.048,0.01 0.096,0.013 0.144,0.013 0.148,0 0.294,-0.043 0.417,-0.129 0.163,-0.113 0.273,-0.288 0.306,-0.485 l 0.323,-1.993 c 0.062,-0.386 -0.187,-0.752 -0.568,-0.832 z"
           inkscape:connector-curvature="0" />
        <path
           id="path5466"
           d="m 444.70074,454.90715 c -1.337,-0.292 -2.281,-0.45 -3.442,-0.45 -2.847,0 -5.33,0.832 -7.391,2.467 -0.092,0.062 -0.192,0.142 -0.303,0.247 -0.231,0.197 -0.452,0.405 -0.668,0.621 -1.478,1.313 -2.759,1.95 -2.759,-1.235 v -0.666 c 0,-0.404 -0.327,-0.733 -0.732,-0.733 h -2.101 c -0.198,0 -0.388,0.081 -0.526,0.223 -0.138,0.143 -0.212,0.335 -0.206,0.533 0.105,3.333 0.215,6.778 0.215,9.622 v 18.749 c 0,0.403 0.327,0.731 0.732,0.731 h 2.209 c 0.404,0 0.732,-0.328 0.732,-0.731 v -9.913 c 0,-1.371 0.107,-3.805 0.309,-4.813 1.569,-7.798 4.983,-11.59 10.435,-11.59 0.979,0 1.881,0.164 2.874,0.364 0.048,0.01 0.096,0.013 0.144,0.013 0.148,0 0.294,-0.043 0.417,-0.129 0.163,-0.113 0.273,-0.288 0.306,-0.485 l 0.323,-1.993 c 0.061,-0.386 -0.188,-0.752 -0.568,-0.832 z"
           inkscape:connector-curvature="0" />
        <path
           id="path5468"
           d="m 559.79974,456.49815 c -2.512,-1.775 -5.292,-2.041 -6.726,-2.041 -2.91,0 -5.648,0.913 -7.822,2.496 -0.005,0.003 -0.01,0.003 -0.014,0.007 -1.004,0.649 -2.627,0.911 -2.618,-0.624 l 0,-0.021 c 0.002,-0.107 -0.003,-0.198 -0.013,-0.278 l -0.008,-0.181 c -0.019,-0.391 -0.34,-0.699 -0.731,-0.699 h -2.102 c -0.203,0 -0.396,0.086 -0.535,0.232 -0.138,0.148 -0.209,0.348 -0.195,0.549 0.152,2.282 0.214,4.17 0.214,6.526 v 21.819 c 0,0.403 0.328,0.731 0.731,0.731 h 2.209 c 0.404,0 0.732,-0.328 0.732,-0.731 v -17.51 c 0,-0.815 0.253,-1.763 0.49,-2.378 0.004,-0.01 0.006,-0.016 0.01,-0.026 1.043,-3.042 4.224,-6.118 8.417,-6.474 3.236,0 8.327,2.358 9.024,8.226 0.016,0.15 0.03,0.299 0.042,0.443 0.004,0.05 0.008,0.099 0.011,0.148 0.005,0.07 0.009,0.14 0.014,0.209 0.009,0.19 0.015,0.386 0.015,0.584 0,0.332 0.006,0.636 0.017,0.909 v 15.868 c 0,0.403 0.328,0.731 0.733,0.731 h 2.208 c 0.404,0 0.732,-0.328 0.732,-0.731 v -16.271 c 0,-5.372 -1.627,-9.246 -4.835,-11.513 z"
           inkscape:connector-curvature="0" />
        <path
           id="path5470"
           d="m 636.02374,481.83915 c -0.133,-0.111 -0.301,-0.173 -0.473,-0.173 -0.04,0 -0.08,0.005 -0.12,0.01 -0.587,0.097 -0.965,0.097 -1.442,0.097 -1.147,0 -2.177,-0.334 -2.177,-4.386 v -9.913 c 0,-2.344 -0.179,-5.367 -1.583,-7.971 -1.822,-3.384 -5.181,-5.099 -9.978,-5.099 -2.475,0 -6.217,0.516 -9.99,2.974 -0.315,0.205 -0.422,0.614 -0.25,0.949 l 0.861,1.67 c 0.098,0.188 0.272,0.325 0.478,0.377 0.058,0.013 0.116,0.019 0.173,0.019 0.151,0 0.299,-0.046 0.424,-0.133 2.314,-1.64 5.186,-2.506 8.305,-2.506 3.995,0 6.004,1.854 7,3.939 0,0 0,0 0,0.002 1.004,2.219 -0.561,4.402 -2.285,4.584 -0.085,0.005 -0.17,0.006 -0.254,0.012 -0.014,0 -0.028,0 -0.042,0 -0.055,-0.002 -0.101,0.002 -0.143,0.009 -10.978,0.628 -16.538,4.312 -16.538,10.98 0,2.028 0.803,4.057 2.202,5.569 1.233,1.332 3.56,2.92 7.635,2.92 3.471,0 6.271,-1.111 8.325,-2.472 0.061,-0.032 0.13,-0.076 0.211,-0.141 0.023,-0.017 0.042,-0.029 0.064,-0.047 0.128,-0.09 0.256,-0.18 0.378,-0.269 1.275,-0.825 1.969,-0.351 2.623,0.502 0.002,0.005 0.006,0.006 0.008,0.008 0.84,1.143 2.161,1.72 3.962,1.72 0.846,0 1.591,-0.094 2.344,-0.296 0.32,-0.086 0.543,-0.374 0.543,-0.706 v -1.672 c -0.002,-0.215 -0.097,-0.417 -0.261,-0.557 z m -18.252,0.529 c -3.042,0 -6.111,-1.725 -6.111,-5.573 0,-4.862 5.936,-6.58 12.167,-7.043 2.32,-0.043 4.097,2.161 4.311,4.575 v 0.988 c -0.062,0.647 -0.246,1.289 -0.568,1.889 -0.162,0.263 -0.356,0.556 -0.589,0.864 -0.04,0.048 -0.075,0.092 -0.103,0.134 -1.442,1.848 -4.223,4.166 -9.107,4.166 z"
           inkscape:connector-curvature="0" />
        <path
           id="path5472"
           d="m 599.89174,455.15715 h -2.047 c -0.393,0 -0.716,0.31 -0.731,0.704 -0.066,1.617 -0.892,1.835 -2.703,0.766 -0.009,-0.008 -0.018,-0.013 -0.027,-0.021 -0.178,-0.118 -0.362,-0.229 -0.546,-0.339 -0.011,-0.005 -0.02,-0.011 -0.031,-0.019 -0.087,-0.059 -0.168,-0.102 -0.244,-0.139 -1.982,-1.097 -4.307,-1.652 -6.924,-1.652 -3.739,0 -7.429,1.549 -10.122,4.249 -2.082,2.089 -4.564,5.828 -4.564,11.785 0,3.816 1.346,7.414 3.792,10.122 2.595,2.873 6.234,4.458 10.248,4.458 3.111,0 5.514,-0.822 7.335,-1.898 0.004,0 0.007,-0.003 0.012,-0.004 1.954,-0.874 3.603,-2.182 3.135,2.233 -0.875,5.677 -4.519,8.764 -10.482,8.764 -4.175,0 -7.31,-1.406 -9.204,-2.583 -0.118,-0.073 -0.251,-0.111 -0.387,-0.111 -0.06,0 -0.122,0.008 -0.182,0.022 -0.193,0.051 -0.358,0.177 -0.456,0.351 l -0.97,1.725 c -0.189,0.335 -0.085,0.763 0.237,0.972 2.853,1.864 6.91,2.976 10.854,2.976 2.689,0 9.293,-0.624 12.493,-6.413 1.385,-2.482 2.031,-5.968 2.031,-10.968 v -17.456 c 0,-2.476 0.07,-4.679 0.214,-6.738 0.014,-0.203 -0.057,-0.401 -0.195,-0.55 -0.139,-0.15 -0.332,-0.236 -0.536,-0.236 z m -16.892,26.028 c -0.605,-0.24 -7.609,-3.216 -7.013,-11.813 0.551,-7.939 5.716,-10.454 6.517,-10.796 1.278,-0.501 2.701,-0.77 4.242,-0.77 1.665,0 3.113,0.327 4.354,0.871 6.845,3.873 7.696,16.454 0.884,21.469 -1.592,1 -3.436,1.573 -5.345,1.573 -1.343,10e-4 -2.553,-0.192 -3.639,-0.534 z"
           inkscape:connector-curvature="0" />
        <path
           id="path5474"
           d="m 501.11674,440.93115 c -2.337,2.339 -4.109,5.342 -5.032,8.657 -6.076,-0.094 -12.171,2.271 -17.007,7.109 -8.142,8.141 -10.674,22.911 0.667,34.251 9.542,9.545 23.793,9.688 33.145,0.336 4.421,-4.424 7.236,-10.507 7.297,-16.94 3.14,-0.837 6.125,-2.508 8.67,-5.049 6.956,-6.959 9.086,-18.919 -0.311,-28.318 -7.833,-7.83 -19.626,-7.848 -27.429,-0.046 z m 25.622,20.423 c -1.335,1.339 -3.045,2.324 -4.932,2.864 -3.027,0.868 -4.657,0.776 -5.698,2.515 -1.041,1.736 -0.926,1.941 -0.88,5.193 0.056,3.689 -1.333,7.515 -4.813,10.996 -5.32,5.317 -15.14,6.504 -22.366,-0.722 -5.693,-5.693 -8.365,-15.278 -0.778,-22.864 2.816,-2.814 6.866,-4.479 11.124,-4.403 2.961,0.053 3.306,0.161 5.212,-0.703 1.909,-0.868 1.082,-2.799 2.222,-6.205 0.556,-1.66 1.545,-3.294 3.092,-4.844 4.126,-4.125 11.721,-5.071 17.285,0.491 4.533,4.535 6.455,11.76 0.532,17.682 z"
           inkscape:connector-curvature="0"
           style="fill:url(#linearGradient5476)" />
      </g>
    </g>
    <g
       transform="matrix(0.56558572,0,0,0.56558572,344.10986,349.67656)"
       id="g5478"
       inkscape:label="レイヤー 1">
      <g
         id="g5480">
        <path
           inkscape:connector-curvature="0"
           d="m 470.75274,454.90715 c -1.336,-0.292 -2.281,-0.45 -3.442,-0.45 -2.847,0 -5.33,0.832 -7.391,2.467 -0.091,0.062 -0.192,0.142 -0.303,0.247 -0.231,0.197 -0.452,0.405 -0.668,0.621 -1.478,1.313 -2.76,1.95 -2.76,-1.235 v -0.666 c 0,-0.404 -0.327,-0.733 -0.732,-0.733 h -2.101 c -0.198,0 -0.388,0.081 -0.525,0.223 -0.139,0.143 -0.212,0.335 -0.206,0.533 0.105,3.333 0.215,6.778 0.215,9.622 v 18.749 c 0,0.403 0.328,0.731 0.732,0.731 h 2.209 c 0.404,0 0.732,-0.328 0.732,-0.731 v -9.913 c 0,-1.371 0.107,-3.805 0.309,-4.813 1.569,-7.798 4.982,-11.59 10.435,-11.59 0.979,0 1.881,0.164 2.874,0.364 0.048,0.01 0.096,0.013 0.144,0.013 0.148,0 0.294,-0.043 0.417,-0.129 0.163,-0.113 0.273,-0.288 0.306,-0.485 l 0.323,-1.993 c 0.062,-0.386 -0.187,-0.752 -0.568,-0.832 z"
           id="path5482" />
        <path
           inkscape:connector-curvature="0"
           d="m 444.70074,454.90715 c -1.337,-0.292 -2.281,-0.45 -3.442,-0.45 -2.847,0 -5.33,0.832 -7.391,2.467 -0.092,0.062 -0.192,0.142 -0.303,0.247 -0.231,0.197 -0.452,0.405 -0.668,0.621 -1.478,1.313 -2.759,1.95 -2.759,-1.235 v -0.666 c 0,-0.404 -0.327,-0.733 -0.732,-0.733 h -2.101 c -0.198,0 -0.388,0.081 -0.526,0.223 -0.138,0.143 -0.212,0.335 -0.206,0.533 0.105,3.333 0.215,6.778 0.215,9.622 v 18.749 c 0,0.403 0.327,0.731 0.732,0.731 h 2.209 c 0.404,0 0.732,-0.328 0.732,-0.731 v -9.913 c 0,-1.371 0.107,-3.805 0.309,-4.813 1.569,-7.798 4.983,-11.59 10.435,-11.59 0.979,0 1.881,0.164 2.874,0.364 0.048,0.01 0.096,0.013 0.144,0.013 0.148,0 0.294,-0.043 0.417,-0.129 0.163,-0.113 0.273,-0.288 0.306,-0.485 l 0.323,-1.993 c 0.061,-0.386 -0.188,-0.752 -0.568,-0.832 z"
           id="path5484" />
        <path
           inkscape:connector-curvature="0"
           d="m 559.79974,456.49815 c -2.512,-1.775 -5.292,-2.041 -6.726,-2.041 -2.91,0 -5.648,0.913 -7.822,2.496 -0.005,0.003 -0.01,0.003 -0.014,0.007 -1.004,0.649 -2.627,0.911 -2.618,-0.624 l 0,-0.021 c 0.002,-0.107 -0.003,-0.198 -0.013,-0.278 l -0.008,-0.181 c -0.019,-0.391 -0.34,-0.699 -0.731,-0.699 h -2.102 c -0.203,0 -0.396,0.086 -0.535,0.232 -0.138,0.148 -0.209,0.348 -0.195,0.549 0.152,2.282 0.214,4.17 0.214,6.526 v 21.819 c 0,0.403 0.328,0.731 0.731,0.731 h 2.209 c 0.404,0 0.732,-0.328 0.732,-0.731 v -17.51 c 0,-0.815 0.253,-1.763 0.49,-2.378 0.004,-0.01 0.006,-0.016 0.01,-0.026 1.043,-3.042 4.224,-6.118 8.417,-6.474 3.236,0 8.327,2.358 9.024,8.226 0.016,0.15 0.03,0.299 0.042,0.443 0.004,0.05 0.008,0.099 0.011,0.148 0.005,0.07 0.009,0.14 0.014,0.209 0.009,0.19 0.015,0.386 0.015,0.584 0,0.332 0.006,0.636 0.017,0.909 v 15.868 c 0,0.403 0.328,0.731 0.733,0.731 h 2.208 c 0.404,0 0.732,-0.328 0.732,-0.731 v -16.271 c 0,-5.372 -1.627,-9.246 -4.835,-11.513 z"
           id="path5486" />
        <path
           inkscape:connector-curvature="0"
           d="m 636.02374,481.83915 c -0.133,-0.111 -0.301,-0.173 -0.473,-0.173 -0.04,0 -0.08,0.005 -0.12,0.01 -0.587,0.097 -0.965,0.097 -1.442,0.097 -1.147,0 -2.177,-0.334 -2.177,-4.386 v -9.913 c 0,-2.344 -0.179,-5.367 -1.583,-7.971 -1.822,-3.384 -5.181,-5.099 -9.978,-5.099 -2.475,0 -6.217,0.516 -9.99,2.974 -0.315,0.205 -0.422,0.614 -0.25,0.949 l 0.861,1.67 c 0.098,0.188 0.272,0.325 0.478,0.377 0.058,0.013 0.116,0.019 0.173,0.019 0.151,0 0.299,-0.046 0.424,-0.133 2.314,-1.64 5.186,-2.506 8.305,-2.506 3.995,0 6.004,1.854 7,3.939 0,0 0,0 0,0.002 1.004,2.219 -0.561,4.402 -2.285,4.584 -0.085,0.005 -0.17,0.006 -0.254,0.012 -0.014,0 -0.028,0 -0.042,0 -0.055,-0.002 -0.101,0.002 -0.143,0.009 -10.978,0.628 -16.538,4.312 -16.538,10.98 0,2.028 0.803,4.057 2.202,5.569 1.233,1.332 3.56,2.92 7.635,2.92 3.471,0 6.271,-1.111 8.325,-2.472 0.061,-0.032 0.13,-0.076 0.211,-0.141 0.023,-0.017 0.042,-0.029 0.064,-0.047 0.128,-0.09 0.256,-0.18 0.378,-0.269 1.275,-0.825 1.969,-0.351 2.623,0.502 0.002,0.005 0.006,0.006 0.008,0.008 0.84,1.143 2.161,1.72 3.962,1.72 0.846,0 1.591,-0.094 2.344,-0.296 0.32,-0.086 0.543,-0.374 0.543,-0.706 v -1.672 c -0.002,-0.215 -0.097,-0.417 -0.261,-0.557 z m -18.252,0.529 c -3.042,0 -6.111,-1.725 -6.111,-5.573 0,-4.862 5.936,-6.58 12.167,-7.043 2.32,-0.043 4.097,2.161 4.311,4.575 v 0.988 c -0.062,0.647 -0.246,1.289 -0.568,1.889 -0.162,0.263 -0.356,0.556 -0.589,0.864 -0.04,0.048 -0.075,0.092 -0.103,0.134 -1.442,1.848 -4.223,4.166 -9.107,4.166 z"
           id="path5488" />
        <path
           inkscape:connector-curvature="0"
           d="m 599.89174,455.15715 h -2.047 c -0.393,0 -0.716,0.31 -0.731,0.704 -0.066,1.617 -0.892,1.835 -2.703,0.766 -0.009,-0.008 -0.018,-0.013 -0.027,-0.021 -0.178,-0.118 -0.362,-0.229 -0.546,-0.339 -0.011,-0.005 -0.02,-0.011 -0.031,-0.019 -0.087,-0.059 -0.168,-0.102 -0.244,-0.139 -1.982,-1.097 -4.307,-1.652 -6.924,-1.652 -3.739,0 -7.429,1.549 -10.122,4.249 -2.082,2.089 -4.564,5.828 -4.564,11.785 0,3.816 1.346,7.414 3.792,10.122 2.595,2.873 6.234,4.458 10.248,4.458 3.111,0 5.514,-0.822 7.335,-1.898 0.004,0 0.007,-0.003 0.012,-0.004 1.954,-0.874 3.603,-2.182 3.135,2.233 -0.875,5.677 -4.519,8.764 -10.482,8.764 -4.175,0 -7.31,-1.406 -9.204,-2.583 -0.118,-0.073 -0.251,-0.111 -0.387,-0.111 -0.06,0 -0.122,0.008 -0.182,0.022 -0.193,0.051 -0.358,0.177 -0.456,0.351 l -0.97,1.725 c -0.189,0.335 -0.085,0.763 0.237,0.972 2.853,1.864 6.91,2.976 10.854,2.976 2.689,0 9.293,-0.624 12.493,-6.413 1.385,-2.482 2.031,-5.968 2.031,-10.968 v -17.456 c 0,-2.476 0.07,-4.679 0.214,-6.738 0.014,-0.203 -0.057,-0.401 -0.195,-0.55 -0.139,-0.15 -0.332,-0.236 -0.536,-0.236 z m -16.892,26.028 c -0.605,-0.24 -7.609,-3.216 -7.013,-11.813 0.551,-7.939 5.716,-10.454 6.517,-10.796 1.278,-0.501 2.701,-0.77 4.242,-0.77 1.665,0 3.113,0.327 4.354,0.871 6.845,3.873 7.696,16.454 0.884,21.469 -1.592,1 -3.436,1.573 -5.345,1.573 -1.343,10e-4 -2.553,-0.192 -3.639,-0.534 z"
           id="path5490" />
        <path
           style="fill:url(#linearGradient5494)"
           inkscape:connector-curvature="0"
           d="m 501.11674,440.93115 c -2.337,2.339 -4.109,5.342 -5.032,8.657 -6.076,-0.094 -12.171,2.271 -17.007,7.109 -8.142,8.141 -10.674,22.911 0.667,34.251 9.542,9.545 23.793,9.688 33.145,0.336 4.421,-4.424 7.236,-10.507 7.297,-16.94 3.14,-0.837 6.125,-2.508 8.67,-5.049 6.956,-6.959 9.086,-18.919 -0.311,-28.318 -7.833,-7.83 -19.626,-7.848 -27.429,-0.046 z m 25.622,20.423 c -1.335,1.339 -3.045,2.324 -4.932,2.864 -3.027,0.868 -4.657,0.776 -5.698,2.515 -1.041,1.736 -0.926,1.941 -0.88,5.193 0.056,3.689 -1.333,7.515 -4.813,10.996 -5.32,5.317 -15.14,6.504 -22.366,-0.722 -5.693,-5.693 -8.365,-15.278 -0.778,-22.864 2.816,-2.814 6.866,-4.479 11.124,-4.403 2.961,0.053 3.306,0.161 5.212,-0.703 1.909,-0.868 1.082,-2.799 2.222,-6.205 0.556,-1.66 1.545,-3.294 3.092,-4.844 4.126,-4.125 11.721,-5.071 17.285,0.491 4.533,4.535 6.455,11.76 0.532,17.682 z"
           id="path5492" />
      </g>
    </g>
  </g>
</svg>
